<svg width="57" height="41" viewBox="0 0 57 41" fill="none" xmlns="http://www.w3.org/2000/svg">
<path d="M0 40.951V37.049H1.68839C2.05611 37.049 2.35305 37.1705 2.5792 37.4136C2.80191 37.6585 2.91326 37.966 2.91326 38.3361C2.91326 38.717 2.80191 39.0299 2.5792 39.2748C2.35305 39.5234 2.05611 39.6476 1.68839 39.6476H0.833839V40.951H0ZM0.833839 38.8667H1.52266C1.88348 38.8667 2.06388 38.6898 2.06388 38.3361C2.06388 38.1692 2.01641 38.0413 1.92146 37.9524C1.82478 37.8671 1.69185 37.8245 1.52266 37.8245H0.833839V38.8667Z" fill="#0B2540"/>
<path d="M6.68656 39.468L7.58255 40.8966V40.951H6.60628L5.80611 39.5741H5.28561V40.951H4.45177V37.049H6.15052C6.5286 37.049 6.83589 37.1705 7.07241 37.4136C7.30201 37.6549 7.41682 37.9478 7.41682 38.2925C7.41682 38.5664 7.35294 38.8077 7.22519 39.0163C7.09399 39.2231 6.91444 39.3737 6.68656 39.468ZM5.28561 37.8299V38.7932H6.1065C6.26015 38.7932 6.37495 38.7451 6.45091 38.649C6.52515 38.5546 6.56226 38.4376 6.56226 38.298C6.56226 38.1692 6.52515 38.0576 6.45091 37.9633C6.3715 37.8744 6.25669 37.8299 6.1065 37.8299H5.28561Z" fill="#0B2540"/>
<path d="M10.6049 41C10.0317 41 9.58805 40.8132 9.27384 40.4395C8.95792 40.0639 8.79995 39.5841 8.79995 39C8.79995 38.4141 8.95792 37.9333 9.27384 37.5578C9.58632 37.1859 10.03 37 10.6049 37C11.1832 37 11.6286 37.1859 11.9411 37.5578C12.2518 37.9279 12.4072 38.4086 12.4072 39C12.4072 39.5896 12.2518 40.0694 11.9411 40.4395C11.6269 40.8132 11.1815 41 10.6049 41ZM10.6049 40.2109C10.9139 40.2109 11.1504 40.1066 11.3144 39.898C11.4767 39.693 11.5578 39.3937 11.5578 39C11.5578 38.6027 11.4767 38.3016 11.3144 38.0966C11.1539 37.8934 10.9174 37.7918 10.6049 37.7918C10.2907 37.7918 10.0533 37.8934 9.89275 38.0966C9.73047 38.3016 9.64933 38.6027 9.64933 39C9.64933 39.3882 9.7322 39.6875 9.89793 39.898C10.0619 40.1066 10.2976 40.2109 10.6049 40.2109Z" fill="#0B2540"/>
<path d="M15.2457 41C14.7588 41 14.3842 40.8757 14.1218 40.6272C13.8542 40.3841 13.7075 40.0458 13.6816 39.6122H14.5258C14.5413 39.8136 14.6138 39.966 14.7433 40.0694C14.8693 40.1746 15.0368 40.2272 15.2457 40.2272C15.7084 40.2272 15.9397 40.093 15.9397 39.8245C15.9397 39.7156 15.906 39.6286 15.8387 39.5633C15.7696 39.5016 15.6531 39.4517 15.4891 39.4136L14.9479 39.2912C14.5802 39.2059 14.2996 39.0753 14.1063 38.8993C13.9043 38.727 13.8033 38.4676 13.8033 38.1211C13.8033 37.7909 13.9362 37.5215 14.2021 37.3129C14.468 37.1043 14.8175 37 15.2509 37C15.679 37 16.0329 37.1188 16.3126 37.3565C16.5871 37.5959 16.7269 37.9007 16.7321 38.2707H15.8879C15.8775 38.1329 15.8188 38.0159 15.7118 37.9197C15.603 37.8272 15.4459 37.781 15.2405 37.781C15.0368 37.781 14.8901 37.8145 14.8003 37.8816C14.7053 37.9488 14.6579 38.0286 14.6579 38.1211C14.6579 38.2009 14.6881 38.2726 14.7485 38.3361C14.8037 38.3941 14.9134 38.4431 15.0774 38.483L15.5797 38.5946C15.9682 38.678 16.2668 38.8113 16.4757 38.9946C16.6881 39.1796 16.7942 39.449 16.7942 39.8027C16.7942 40.1728 16.6691 40.4649 16.4188 40.6789C16.1736 40.893 15.7826 41 15.2457 41Z" fill="#0B2540"/>
<path d="M18.3043 40.951V37.049H19.9927C20.3604 37.049 20.6573 37.1705 20.8835 37.4136C21.1062 37.6585 21.2175 37.966 21.2175 38.3361C21.2175 38.717 21.1062 39.0299 20.8835 39.2748C20.6573 39.5234 20.3604 39.6476 19.9927 39.6476H19.1381V40.951H18.3043ZM19.1381 38.8667H19.8269C20.1877 38.8667 20.3682 38.6898 20.3682 38.3361C20.3682 38.1692 20.3207 38.0413 20.2257 37.9524C20.129 37.8671 19.9961 37.8245 19.8269 37.8245H19.1381V38.8667Z" fill="#0B2540"/>
<path d="M22.756 40.951V37.049H25.4078V37.8299H23.5899V38.5483H25.2446V39.3293H23.5899V40.1755H25.4078V40.951H22.756Z" fill="#0B2540"/>
<path d="M28.588 41C28.0183 41 27.5764 40.8132 27.2622 40.4395C26.9463 40.0639 26.7883 39.5859 26.7883 39.0054C26.7883 38.4159 26.9445 37.9351 27.257 37.5633C27.5729 37.1878 28.0166 37 28.588 37C29.0542 37 29.4374 37.1469 29.7378 37.4408C30.0417 37.7383 30.2065 38.0984 30.2324 38.5211H29.383C29.3675 38.3197 29.2915 38.1474 29.1552 38.0041C29.0205 37.8626 28.8315 37.7918 28.588 37.7918C28.2808 37.7918 28.0451 37.8952 27.8811 38.102C27.7188 38.307 27.6377 38.6082 27.6377 39.0054C27.6377 39.3991 27.7188 39.6984 27.8811 39.9034C28.0451 40.112 28.2808 40.2163 28.588 40.2163C28.8211 40.2163 29.005 40.151 29.1396 40.0204C29.2691 39.8952 29.352 39.7283 29.3882 39.5197H30.2324C30.1962 39.9388 30.0261 40.2898 29.7223 40.5728C29.4167 40.8576 29.0386 41 28.588 41Z" fill="#0B2540"/>
<path d="M32.5478 40.951V37.8354H31.4783V37.049H34.4589V37.8354H33.3868V40.951H32.5478Z" fill="#0B2540"/>
<path d="M38.1493 39.468L39.0453 40.8966V40.951H38.0691L37.2689 39.5741H36.7484V40.951H35.9145V37.049H37.6133C37.9914 37.049 38.2987 37.1705 38.5352 37.4136C38.7648 37.6549 38.8796 37.9478 38.8796 38.2925C38.8796 38.5664 38.8157 38.8077 38.688 39.0163C38.5568 39.2231 38.3772 39.3737 38.1493 39.468ZM36.7484 37.8299V38.7932H37.5693C37.7229 38.7932 37.8377 38.7451 37.9137 38.649C37.9879 38.5546 38.025 38.4376 38.025 38.298C38.025 38.1692 37.9879 38.0576 37.9137 37.9633C37.8343 37.8744 37.7195 37.8299 37.5693 37.8299H36.7484Z" fill="#0B2540"/>
<path d="M42.0676 41C41.4945 41 41.0508 40.8132 40.7366 40.4395C40.4207 40.0639 40.2627 39.5841 40.2627 39C40.2627 38.4141 40.4207 37.9333 40.7366 37.5578C41.0491 37.1859 41.4928 37 42.0676 37C42.646 37 43.0914 37.1859 43.4039 37.5578C43.7146 37.9279 43.87 38.4086 43.87 39C43.87 39.5896 43.7146 40.0694 43.4039 40.4395C43.0897 40.8132 42.6443 41 42.0676 41ZM42.0676 40.2109C42.3767 40.2109 42.6132 40.1066 42.7772 39.898C42.9395 39.693 43.0206 39.3937 43.0206 39C43.0206 38.6027 42.9395 38.3016 42.7772 38.0966C42.6166 37.8934 42.3801 37.7918 42.0676 37.7918C41.7534 37.7918 41.5161 37.8934 41.3555 38.0966C41.1932 38.3016 41.1121 38.6027 41.1121 39C41.1121 39.3882 41.195 39.6875 41.3607 39.898C41.5247 40.1066 41.7604 40.2109 42.0676 40.2109Z" fill="#0B2540"/>
<path d="M46.926 41C46.4719 41 46.0973 40.863 45.8021 40.5891C45.5052 40.317 45.3567 39.9234 45.3567 39.4082V37.049H46.188V39.3973C46.188 39.9469 46.434 40.2218 46.926 40.2218C47.4214 40.2218 47.6692 39.9469 47.6692 39.3973V37.049H48.5056V39.4082C48.5056 39.9234 48.3589 40.317 48.0654 40.5891C47.765 40.863 47.3852 41 46.926 41Z" fill="#0B2540"/>
<path d="M50.9815 40.951V37.8354H49.9121V37.049H52.8926V37.8354H51.8206V40.951H50.9815Z" fill="#0B2540"/>
<path d="M54.3483 40.951V37.049H57V37.8299H55.1821V38.5483H56.8369V39.3293H55.1821V40.1755H57V40.951H54.3483Z" fill="#0B2540"/>
<path d="M42.2056 14.8076C42.2478 14.7835 42.29 14.7588 42.3322 14.7347L42.3449 14.744L42.3462 14.7246C42.363 14.7293 42.3744 14.724 42.3804 14.7072C42.4045 14.6932 42.4293 14.6784 42.4534 14.6644L42.4527 14.665C42.4808 14.6483 42.5096 14.6316 42.5377 14.6148V14.6175C42.839 14.4849 43.1242 14.3256 43.388 14.1274C44.2162 13.6527 45.045 13.1787 45.8732 12.704C46.1805 12.5279 46.4919 12.3572 46.7938 12.1711C47.1058 11.9783 47.1118 11.8169 46.8065 11.6341C46.3881 11.3838 45.9583 11.1528 45.5331 10.9131C45.438 10.8173 45.3262 10.7511 45.1943 10.7196C45.1508 10.6935 45.1073 10.668 45.0638 10.6419C44.7009 10.3909 44.3206 10.1699 43.9216 9.98179L43.9183 9.97978C43.8928 9.92488 43.8459 9.90948 43.7904 9.91082C43.7663 9.85726 43.7181 9.8432 43.6658 9.83784C43.4844 9.67582 43.2661 9.57673 43.0499 9.47363C43.0271 9.46359 43.0044 9.45288 42.9816 9.44283C42.9394 9.41806 42.8979 9.39329 42.8557 9.36852L42.8577 9.37052C42.849 9.33236 42.8296 9.30826 42.7861 9.31295C42.772 9.29889 42.756 9.29353 42.7366 9.29755C42.689 9.26943 42.6422 9.24131 42.5953 9.21252C42.5598 9.1931 42.525 9.17302 42.4895 9.1536C42.3389 9.01836 42.1621 8.92731 41.9767 8.85232L41.9599 8.84362L41.9499 8.82085L41.9278 8.82688C41.8823 8.80612 41.8374 8.7847 41.7919 8.76395C41.7463 8.68293 41.6727 8.64544 41.5843 8.63071C41.4852 8.54234 41.3734 8.47539 41.2456 8.43588C41.1538 8.33747 41.0407 8.2752 40.9115 8.24039C40.9028 8.22432 40.8894 8.21829 40.8713 8.22231C40.8371 8.15335 40.7762 8.12724 40.7053 8.1172L40.6919 8.10849C40.416 7.93643 40.1509 7.74428 39.8429 7.62912C39.8148 7.6097 39.7867 7.59029 39.7586 7.57087C39.7351 7.51865 39.6876 7.51062 39.6387 7.50526L39.634 7.50191C39.5644 7.42559 39.4774 7.38006 39.3783 7.35663L39.3803 7.35797C39.3247 7.29169 39.2591 7.24348 39.1687 7.23812L39.1593 7.23478C39.1419 7.22072 39.1245 7.20733 39.1071 7.19327C38.9116 7.07543 38.7195 6.95224 38.5206 6.84043C38.2455 6.68644 38.0634 6.78754 38.06 7.10422C38.0533 7.8293 38.0493 8.55439 38.062 9.27947C38.066 9.51112 37.9997 9.57874 37.7641 9.57874C34.4507 9.57138 31.1379 9.57138 27.8245 9.57941C27.5861 9.58008 27.5259 9.50844 27.5266 9.27813C27.5332 6.29947 27.5332 3.3208 27.5259 0.342806C27.5252 0.0823657 27.5962 0.00537109 27.8673 0.00537109C32.9878 0.0140748 38.1082 0.00871972 43.2287 0.0127368C44.6058 0.0140758 45.9502 0.227649 47.2491 0.699656C47.3006 0.718403 47.3569 0.723759 47.4111 0.73514C47.5062 0.81816 47.6193 0.856993 47.7432 0.868375L47.7452 0.869043C47.8865 0.9688 48.0398 1.03977 48.2105 1.07258H48.2098C48.2386 1.12815 48.2882 1.13886 48.3444 1.13484C48.3504 1.15158 48.3618 1.1576 48.3792 1.15292C48.4207 1.21117 48.4736 1.24933 48.5479 1.25C48.6129 1.28012 48.6785 1.31025 48.7434 1.34038C48.7716 1.39595 48.8211 1.41001 48.878 1.41001L48.876 1.40867C48.8994 1.42407 48.9229 1.43947 48.9463 1.45487C48.9597 1.47294 48.9778 1.48098 49.0005 1.47897C49.0568 1.54726 49.1224 1.59948 49.2141 1.60886C49.2188 1.62426 49.2288 1.62961 49.2436 1.62426C49.2837 1.68987 49.342 1.72602 49.4196 1.72937L49.4277 1.73606C49.4451 1.75146 49.4632 1.76619 49.4806 1.78159C49.5033 1.79029 49.5268 1.799 49.5495 1.8077C49.6781 1.95767 49.8448 2.05274 50.0202 2.13643C50.0483 2.15853 50.0764 2.18062 50.1046 2.20271C50.1266 2.25159 50.1655 2.27703 50.2184 2.28038C51.0733 2.95659 51.8473 3.71447 52.5161 4.57681C52.6788 4.82118 52.8234 5.07894 53.0276 5.29386C53.0364 5.31528 53.0451 5.33604 53.0531 5.35746C53.0685 5.37688 53.0846 5.39562 53.1 5.41504L53.104 5.4204C53.1923 5.67213 53.351 5.88437 53.4923 6.10598C53.4796 6.18833 53.5351 6.23787 53.5807 6.29277C53.6101 6.42266 53.671 6.53647 53.7621 6.63355L53.7614 6.63222C53.7849 6.78219 53.8498 6.91408 53.9295 7.04062C53.9476 7.08213 53.965 7.12431 53.983 7.16582C53.9964 7.19661 54.0092 7.22741 54.0225 7.25821C54.0366 7.29503 54.0507 7.33186 54.0647 7.36868C54.0761 7.39144 54.0882 7.41354 54.0995 7.4363C54.0955 7.45906 54.1002 7.47982 54.1129 7.49857C54.1163 7.62376 54.1598 7.7349 54.2314 7.836C54.2448 7.8822 54.2582 7.92839 54.2716 7.97392C54.2569 8.02012 54.275 8.05426 54.3111 8.08171L54.3165 8.09912C54.3091 8.15402 54.3178 8.20289 54.3687 8.2357L54.3694 8.23704C54.3687 8.33144 54.3647 8.42651 54.437 8.50284C54.4423 8.52627 54.4477 8.54903 54.453 8.57246C54.4644 8.60594 54.4758 8.64009 54.4872 8.67356C54.6251 9.50376 54.7824 10.3293 54.8012 11.1775C54.8353 12.7542 54.5481 14.2687 53.9984 15.7396C53.8518 16.071 53.7052 16.4024 53.5586 16.7338L53.5606 16.7312C53.5432 16.7573 53.5264 16.7827 53.509 16.8088C53.4374 16.9394 53.3664 17.0693 53.2948 17.1998C53.2794 17.2246 53.2647 17.2494 53.2493 17.2741C53.2318 17.2869 53.2231 17.3043 53.2238 17.3257C53.1341 17.4033 53.0645 17.4944 53.0397 17.6136L53.0364 17.6209C52.9962 17.6558 52.9406 17.6799 52.948 17.7481C52.9279 17.785 52.9078 17.8218 52.8877 17.8579C52.7967 17.9356 52.719 18.022 52.6902 18.1432C52.6708 18.1686 52.6507 18.1934 52.6313 18.2188C52.6139 18.2409 52.5958 18.2623 52.5784 18.2844L52.5684 18.2978C52.5543 18.3139 52.5396 18.3293 52.5255 18.3454C51.8895 19.1689 51.1564 19.8966 50.3536 20.5554C50.2693 20.5722 50.2036 20.6137 50.1682 20.6953C50.0148 20.7676 50.0162 20.8587 50.1353 20.9638C50.1595 21.0642 50.2097 21.1486 50.2927 21.2122L50.2994 21.2209C50.3175 21.245 50.3349 21.2684 50.3529 21.2925C50.3637 21.3153 50.3744 21.3381 50.3851 21.3602C50.3985 21.3742 50.4125 21.3883 50.4259 21.403L50.438 21.4184C50.45 21.5021 50.4781 21.5758 50.5571 21.6199L50.5605 21.624C50.5792 21.6501 50.598 21.6762 50.6174 21.7023C50.7172 21.8556 50.8169 22.0096 50.9167 22.1629C50.9314 22.1803 50.9461 22.1977 50.9609 22.2151L50.9662 22.2252C50.9843 22.2513 51.0017 22.2781 51.0198 22.3042C51.0184 22.3276 51.0271 22.3457 51.0459 22.3584C51.1082 22.4856 51.1671 22.6148 51.2856 22.7032L51.2836 22.7005C51.303 22.734 51.3231 22.7675 51.3425 22.801C51.3378 22.8184 51.3438 22.8284 51.3612 22.8311C51.3813 22.8565 51.4007 22.882 51.4208 22.9074C51.4302 22.9268 51.4396 22.9462 51.4496 22.9657C51.465 22.9851 51.4797 23.0045 51.4951 23.0239L51.4991 23.0293C51.5179 23.056 51.536 23.0828 51.5547 23.1096C51.5527 23.1337 51.5614 23.1525 51.5802 23.1672C51.5688 23.2074 51.5936 23.2221 51.6264 23.2315C51.6377 23.2529 51.6491 23.275 51.6612 23.2964C51.6679 23.3613 51.7094 23.4002 51.7623 23.4303L51.7636 23.4323C51.7629 23.4832 51.7824 23.522 51.8312 23.5421C51.8312 23.5615 51.8406 23.5743 51.8593 23.5803C51.8908 23.6258 51.9229 23.6713 51.9544 23.7169C51.9524 23.7403 51.9618 23.7577 51.9825 23.7691C51.9986 23.7892 52.0147 23.8092 52.0314 23.8293L52.0334 23.8334C52.0515 23.8621 52.0696 23.8916 52.0876 23.9204C52.1292 23.984 52.1707 24.0469 52.2122 24.1105C52.2336 24.1989 52.2711 24.2752 52.3561 24.3194C52.3775 24.3569 52.399 24.3944 52.4197 24.4319C52.4104 24.4868 52.4478 24.5069 52.4887 24.5243C52.4853 24.5444 52.4927 24.5591 52.5094 24.5698C52.4914 24.7151 52.6239 24.7593 52.6949 24.845C52.7063 24.8664 52.717 24.8872 52.7284 24.9086C52.7418 24.926 52.7552 24.9441 52.7679 24.9615C52.7766 24.9869 52.7853 25.0124 52.7933 25.0371C52.7552 25.1443 52.8375 25.1449 52.9024 25.161C52.9199 25.1918 52.9379 25.2226 52.9553 25.2534L52.9466 25.2715L52.9661 25.2815C52.9915 25.3123 53.0163 25.3431 53.0417 25.3739C53.0564 25.4563 53.0651 25.5426 53.1709 25.5634C53.1903 25.5908 53.2091 25.6183 53.2278 25.6457C53.2821 25.86 53.3691 26.0535 53.572 26.1706L53.5746 26.1753C53.5994 26.2938 53.6664 26.3835 53.7621 26.4545C53.7621 26.4545 53.7594 26.4512 53.7601 26.4512C53.7775 26.4793 53.7956 26.5074 53.813 26.5348C53.813 26.5348 53.811 26.5375 53.8116 26.5375C53.8819 26.7029 53.969 26.8575 54.1049 26.9801L54.1056 26.9807C54.1169 27.0698 54.1638 27.1347 54.2375 27.1829C54.283 27.2492 54.3278 27.3162 54.3734 27.3824C54.3928 27.4086 54.4115 27.4347 54.4309 27.4608L54.4283 27.4581C54.4899 27.6436 54.6017 27.7962 54.7376 27.9328C54.7932 28.0178 54.8494 28.1022 54.905 28.1872C54.905 28.2428 54.9297 28.2829 54.9799 28.307C54.998 28.3345 55.0161 28.3626 55.0342 28.3901C55.0502 28.4778 55.0951 28.5461 55.1734 28.5909L55.1728 28.5902C55.1875 28.69 55.237 28.769 55.3187 28.8279C55.3415 28.8581 55.3643 28.8888 55.3877 28.919C55.4667 29.0971 55.5484 29.2725 55.7064 29.3977L55.705 29.3957C55.7318 29.5135 55.7894 29.6106 55.8912 29.6795L55.8992 29.6574L55.8898 29.6789C55.9079 29.7826 55.9641 29.863 56.0472 29.9253C56.0592 29.9467 56.0713 29.9674 56.0833 29.9889C56.1101 30.0799 56.1583 30.1556 56.2426 30.2038C56.4549 30.5419 56.6598 30.8853 56.882 31.2174C57.0159 31.4183 56.9537 31.4538 56.7428 31.4538C53.0176 31.4497 49.2918 31.4484 45.5666 31.4558C45.3544 31.4564 45.2439 31.3667 45.1408 31.2094C44.6601 30.4769 44.176 29.7472 43.6913 29.0174C43.5935 28.8708 43.4857 28.7315 43.382 28.5889C43.3927 28.4898 43.3297 28.4336 43.2608 28.3807C43.2447 28.3606 43.2286 28.3398 43.2126 28.3198C43.2012 28.2635 43.1838 28.212 43.1269 28.1852L43.1276 28.1859C43.0613 28.0359 42.9957 27.8859 42.8597 27.7828C42.8497 27.7607 42.8397 27.7386 42.8303 27.7172C42.8156 27.7005 42.8015 27.6831 42.7868 27.6663L42.7787 27.6556C42.762 27.6295 42.7446 27.6034 42.7279 27.5773C42.7118 27.5538 42.6957 27.5311 42.6797 27.5076C42.673 27.4527 42.6555 27.4045 42.5986 27.3818C42.5558 27.3148 42.5123 27.2472 42.4694 27.1802C42.448 27.0939 42.4065 27.0222 42.3268 26.9767L42.3282 26.9781C42.3121 26.8776 42.2572 26.8013 42.1815 26.737C42.1601 26.7076 42.1394 26.6781 42.1179 26.6487C42.1005 26.565 42.063 26.4947 41.9854 26.4518L41.982 26.4478C41.9747 26.4003 41.9713 26.3507 41.9144 26.332C41.8756 26.2771 41.8361 26.2215 41.7972 26.1666L41.8046 26.1465L41.7825 26.1378C41.7597 26.107 41.737 26.0769 41.7142 26.0461C41.7109 25.9537 41.6526 25.8968 41.5843 25.8459L41.5837 25.8446C41.5669 25.7602 41.5241 25.6926 41.4518 25.6444C41.441 25.623 41.4303 25.6015 41.419 25.5794C41.3888 25.4897 41.344 25.4114 41.2563 25.3652C41.2549 25.3431 41.2476 25.3237 41.2335 25.3069C41.2168 25.2855 41.2 25.2641 41.184 25.2427L41.1826 25.2407C41.1813 25.1884 41.1605 25.1483 41.1116 25.1248C41.0916 25.0961 41.0721 25.0673 41.0521 25.0385C40.961 24.8497 40.8572 24.6682 40.7106 24.5156L40.7059 24.5076C40.6785 24.3824 40.5995 24.2906 40.5098 24.2056C40.4582 24.1259 40.406 24.0463 40.3544 23.9659C40.3397 23.9472 40.325 23.9284 40.3109 23.9097L40.3069 23.9036C40.2948 23.8313 40.2634 23.7744 40.1884 23.751C40.0926 23.4718 39.871 23.2696 39.7391 23.0125C39.6729 22.8833 39.557 22.9067 39.4479 22.9061C39.0797 22.9054 38.7108 22.9215 38.3439 22.9007C38.0948 22.8867 38.0567 22.9851 38.0567 23.2087C38.064 25.7857 38.0613 28.3633 38.0607 30.9409C38.0607 31.4484 38.0607 31.4484 37.5378 31.4484C34.4025 31.4504 31.2678 31.4558 28.1325 31.4517C27.4951 31.4511 27.5359 31.5723 27.5359 30.8713C27.5359 25.3819 27.5386 19.8926 27.5399 14.4033C27.5399 14.3591 27.5339 14.3142 27.5312 14.27C27.6283 14.187 27.7575 14.2426 27.8627 14.1937C29.9147 14.197 31.9661 14.2017 34.0182 14.2044C35.3565 14.2058 36.6949 14.2051 38.0332 14.2051C38.0406 14.349 38.0547 14.4923 38.0547 14.6362C38.0567 15.3017 38.0533 15.9679 38.056 16.6334C38.058 17.0371 38.2173 17.1282 38.5769 16.934C38.6331 16.9039 38.6793 16.855 38.7302 16.8148C38.7489 16.8182 38.763 16.8122 38.773 16.7954C38.9009 16.7606 39.0134 16.6983 39.1058 16.6013L39.1078 16.5999C39.1473 16.5765 39.1868 16.5537 39.2263 16.5303C39.2993 16.4881 39.3716 16.4459 39.4446 16.4038C39.5343 16.3917 39.6059 16.3522 39.6528 16.2725C39.6742 16.2712 39.6936 16.2645 39.7117 16.2525C39.8014 16.2504 39.863 16.2016 39.9112 16.1306C39.9802 16.0944 40.0498 16.059 40.1188 16.0228C40.1516 16.0429 40.1609 16.0221 40.1656 15.9954L40.1743 15.9873C40.2433 15.9699 40.3069 15.9451 40.3464 15.8809C40.3625 15.8862 40.3738 15.8809 40.3799 15.8648C40.7729 15.6633 41.1632 15.4564 41.5234 15.1986C41.577 15.1933 41.6265 15.1819 41.6513 15.1263C41.7062 15.1277 41.7537 15.1143 41.7785 15.058L41.7825 15.0554C41.9432 15.0112 42.0818 14.9221 42.2056 14.8076Z" fill="#F2D227"/>
<path d="M0.00341797 31.4055C0.00408748 25.9517 0.00542606 20.4971 0.00609557 15.0433C0.00609557 14.9094 0.0147992 14.7748 0.00609557 14.6416C-0.0159984 14.3202 0.146693 14.2004 0.448644 14.2017C1.2293 14.2057 2.00995 14.2024 2.7906 14.203C10.3193 14.2037 17.848 14.2051 25.3766 14.2057C25.4208 14.2057 25.4657 14.1997 25.5099 14.197C25.6297 14.26 25.5634 14.3718 25.5795 14.4622V14.4628C25.5186 14.5164 25.5119 14.5887 25.5125 14.663V14.6637C25.4416 14.8873 25.3713 15.1102 25.3003 15.3339C25.2903 15.3546 25.2802 15.3754 25.2702 15.3955C25.2327 15.5053 25.1952 15.6151 25.1577 15.7255C24.9408 16.1741 24.7239 16.6227 24.5076 17.0712C24.442 17.1844 24.377 17.2975 24.3114 17.4107L24.3108 17.4127C24.2378 17.4596 24.1976 17.5258 24.1876 17.6115C24.1695 17.6189 24.1615 17.6316 24.1621 17.651C23.9921 17.87 23.814 18.0835 23.6921 18.3353L23.6955 18.3326C23.6741 18.358 23.6533 18.3835 23.6319 18.4096L23.6346 18.4069C23.6138 18.4317 23.5937 18.4565 23.573 18.4812L23.5723 18.4826C23.5562 18.504 23.5402 18.5254 23.5248 18.5469C23.4933 18.5864 23.4618 18.6252 23.431 18.6647C23.4089 18.6921 23.3875 18.7189 23.3654 18.7464C22.8619 19.3121 22.3324 19.8517 21.7626 20.3505C21.7358 20.3726 21.709 20.394 21.6823 20.4161C21.6421 20.4476 21.6026 20.4784 21.5624 20.5092C21.541 20.5253 21.5196 20.5407 21.4981 20.5567L21.4968 20.5574C21.472 20.5782 21.4473 20.5982 21.4232 20.619L21.4258 20.6163C21.3877 20.6431 21.3495 20.6705 21.3113 20.6973L21.3 20.706C21.2779 20.7241 21.2564 20.7415 21.2344 20.7596C21.2082 20.7783 21.1828 20.7964 21.1567 20.8152C21.0335 20.8627 20.9183 20.9209 20.8373 21.0307L20.8293 21.0354C20.8045 21.0535 20.7804 21.0723 20.7556 21.0903L20.7577 21.089C20.7021 21.0903 20.6592 21.1124 20.6351 21.164L20.6298 21.1673C20.5032 21.2015 20.3968 21.2671 20.3118 21.3675C20.2401 21.405 20.1685 21.4432 20.0968 21.4807C19.9897 21.5007 19.9 21.5543 19.8203 21.6259C19.3965 21.8154 18.9727 22.0049 18.5489 22.1944C18.5275 22.2064 18.5068 22.2185 18.4853 22.2305C18.4632 22.2372 18.4411 22.2439 18.419 22.2513C18.326 22.2519 18.241 22.2727 18.176 22.3457C18.1445 22.353 18.1138 22.3611 18.0823 22.3684C17.854 22.4099 17.6304 22.4695 17.4188 22.5679C17.394 22.5733 17.3693 22.5787 17.3445 22.5847C17.1811 22.5974 17.0211 22.6215 16.8731 22.6978L16.841 22.6952L16.8109 22.7059C16.691 22.6858 16.5819 22.7193 16.4775 22.7728C16.4326 22.7768 16.3884 22.7802 16.3436 22.7842C16.2418 22.7715 16.142 22.7701 16.0563 22.8404C16.0188 22.8425 15.9807 22.8438 15.9432 22.8458C15.8053 22.8438 15.6633 22.809 15.5381 22.8987C15.3815 22.9034 15.2255 22.9087 15.0688 22.9134C14.8693 22.9168 14.6698 22.9201 14.4703 22.9228C13.397 22.9228 12.3238 22.9228 11.2506 22.9235C11.1408 22.9235 11.0316 22.9235 10.9218 22.9241C10.8756 22.9241 10.8294 22.9241 10.7833 22.9241C10.4987 22.8572 10.5416 23.052 10.5416 23.2214C10.5422 25.8419 10.5375 28.4623 10.5483 31.0835C10.5496 31.3781 10.4692 31.4577 10.1747 31.4571C7.04134 31.4484 3.90735 31.4537 0.774027 31.4564C0.652176 31.4564 0.530325 31.4685 0.408474 31.4752C0.362947 31.4758 0.31742 31.4765 0.271223 31.4778C0.182178 31.4524 0.0931327 31.429 0.00341797 31.4055Z" fill="#F2D227"/>
<path d="M10.5 8V25.5L0 19V8H10.5Z" fill="#F2D227"/>
<path d="M18.1505 0.658136C18.1726 0.661484 18.1947 0.664163 18.2168 0.66751C18.3125 0.752539 18.4297 0.779989 18.5522 0.793379C18.5743 0.796727 18.5964 0.800074 18.6178 0.803421C18.6419 0.872381 18.6948 0.87238 18.7531 0.860999C18.7952 0.865685 18.8381 0.869703 18.8803 0.87439C18.9091 0.941341 18.966 0.933307 19.0222 0.92862L19.0349 0.933307L19.0503 0.956741L19.0764 0.952053C19.1213 0.971469 19.1655 0.991555 19.2103 1.01097C19.3054 1.09332 19.4145 1.14621 19.5397 1.16496L19.5525 1.15291L19.5377 1.16228C19.6121 1.254 19.7252 1.27409 19.8263 1.31694C19.8899 1.3484 19.9542 1.37987 20.0178 1.41134C20.1135 1.50842 20.2287 1.57135 20.3586 1.60885H20.3592C20.4048 1.68718 20.4831 1.71329 20.5634 1.73538L20.5681 1.7394C20.5708 1.77555 20.5889 1.79296 20.6264 1.78627C20.6485 1.7943 20.6706 1.80234 20.6933 1.8097C20.7161 1.82845 20.7382 1.84652 20.7609 1.86527C20.7656 1.88335 20.777 1.89138 20.7951 1.89004C20.8286 1.90812 20.8614 1.9262 20.8942 1.9436C20.9303 1.96904 20.9671 1.99515 21.0033 2.0206C21.0328 2.04269 21.0622 2.06412 21.0917 2.08621C21.1171 2.10496 21.1432 2.12303 21.1687 2.14178C21.2075 2.17324 21.247 2.20471 21.2858 2.23618C22.1542 2.88628 22.9114 3.65086 23.597 4.48842C23.6117 4.50516 23.6271 4.5219 23.6419 4.53864C23.6619 4.56676 23.682 4.59487 23.7021 4.62299C23.755 4.7569 23.84 4.86871 23.9418 4.96846C23.9559 4.98587 23.9699 5.00395 23.984 5.02136C23.9933 5.08496 24.0141 5.1412 24.0824 5.16463C24.0938 5.18405 24.1052 5.20346 24.1159 5.22288C24.1252 5.30992 24.1694 5.37352 24.2431 5.41838C24.2565 5.44449 24.2692 5.4706 24.2826 5.49604C24.2926 5.51211 24.302 5.52818 24.312 5.54492L24.3201 5.55496C24.3415 5.59044 24.3622 5.62593 24.3837 5.66208C24.4165 5.71832 24.45 5.77456 24.4828 5.8308C24.4928 5.84686 24.5028 5.8636 24.5136 5.87967L24.5189 5.88904C24.5343 5.9734 24.5571 6.05374 24.6408 6.09927C24.6481 6.1207 24.6555 6.14145 24.6629 6.16287C24.6709 6.24589 24.7091 6.31285 24.7753 6.36306C24.8389 6.50031 24.9025 6.63823 24.9668 6.77548L24.9608 6.80025L24.9822 6.81699C25.3109 7.6338 25.5888 8.46466 25.7562 9.33235C25.797 9.54592 25.7414 9.5948 25.5526 9.57672C25.5085 9.57271 25.4636 9.57605 25.4187 9.57605C17.1067 9.57672 8.79473 9.57672 0.482724 9.57672C0.0736509 9.57672 0.00736873 9.51714 0.00736873 9.12012C0.0060297 6.18564 0.0100467 3.25183 4.04461e-06 0.317354C-0.000665469 0.0589221 0.0816849 -0.000663957 0.321371 5.5558e-06C5.04077 0.0073702 9.76017 0.00803857 14.4796 0.0113861C15.3285 0.0120557 16.1654 0.131231 16.9989 0.274506C17.3551 0.486742 17.7689 0.524903 18.1505 0.658136Z" fill="#F2D227"/>
</svg>
