<svg width="129" height="89" viewBox="0 0 129 89" fill="none" xmlns="http://www.w3.org/2000/svg">
<path d="M0 88.8898V80.1102H3.79148C4.61724 80.1102 5.28404 80.3837 5.7919 80.9306C6.292 81.4816 6.54205 82.1735 6.54205 83.0061C6.54205 83.8633 6.292 84.5673 5.7919 85.1184C5.28404 85.6776 4.61724 85.9571 3.79148 85.9571H1.87248V88.8898H0ZM1.87248 84.2H3.41931C4.22956 84.2 4.63468 83.802 4.63468 83.0061C4.63468 82.6306 4.52807 82.3429 4.31485 82.1429C4.09775 81.951 3.79924 81.8551 3.41931 81.8551H1.87248V84.2Z" fill="black"/>
<path d="M15.0154 85.5531L17.0275 88.7673V88.8898H14.8352L13.0383 85.7918H11.8694V88.8898H9.99695V80.1102H13.8117C14.6607 80.1102 15.3508 80.3837 15.8819 80.9306C16.3975 81.4735 16.6553 82.1327 16.6553 82.9082C16.6553 83.5245 16.5119 84.0673 16.225 84.5367C15.9304 85.002 15.5272 85.3408 15.0154 85.5531ZM11.8694 81.8673V84.0347H13.7128C14.0579 84.0347 14.3157 83.9265 14.4863 83.7102C14.653 83.498 14.7363 83.2347 14.7363 82.9204C14.7363 82.6306 14.653 82.3796 14.4863 82.1673C14.3079 81.9673 14.0501 81.8673 13.7128 81.8673H11.8694Z" fill="black"/>
<path d="M23.8145 89C22.5274 89 21.531 88.5796 20.8255 87.7388C20.116 86.8939 19.7613 85.8143 19.7613 84.5C19.7613 83.1816 20.116 82.1 20.8255 81.2551C21.5272 80.4184 22.5235 80 23.8145 80C25.1132 80 26.1134 80.4184 26.8151 81.2551C27.5129 82.0878 27.8618 83.1694 27.8618 84.5C27.8618 85.8265 27.5129 86.9061 26.8151 87.7388C26.1095 88.5796 25.1093 89 23.8145 89ZM23.8145 87.2245C24.5084 87.2245 25.0395 86.9898 25.4078 86.5204C25.7722 86.0592 25.9544 85.3857 25.9544 84.5C25.9544 83.6061 25.7722 82.9286 25.4078 82.4673C25.0473 82.0102 24.5162 81.7816 23.8145 81.7816C23.1089 81.7816 22.5758 82.0102 22.2153 82.4673C21.8509 82.9286 21.6687 83.6061 21.6687 84.5C21.6687 85.3735 21.8548 86.0469 22.2269 86.5204C22.5952 86.9898 23.1244 87.2245 23.8145 87.2245Z" fill="black"/>
<path d="M34.2359 89C33.1427 89 32.3014 88.7204 31.7122 88.1612C31.1112 87.6143 30.7817 86.8531 30.7236 85.8776H32.6193C32.6542 86.3306 32.817 86.6735 33.1078 86.9061C33.3908 87.1429 33.7668 87.2612 34.2359 87.2612C35.2749 87.2612 35.7944 86.9592 35.7944 86.3551C35.7944 86.1102 35.7188 85.9143 35.5676 85.7673C35.4125 85.6286 35.1508 85.5163 34.7826 85.4306L33.5672 85.1551C32.7414 84.9633 32.1115 84.6694 31.6773 84.2735C31.2237 83.8857 30.9969 83.302 30.9969 82.5224C30.9969 81.7796 31.2954 81.1735 31.8924 80.7041C32.4894 80.2347 33.2745 80 34.2476 80C35.209 80 36.0037 80.2673 36.6318 80.802C37.2482 81.3408 37.5622 82.0265 37.5738 82.8592H35.6781C35.6548 82.549 35.523 82.2857 35.2827 82.0694C35.0384 81.8612 34.6856 81.7571 34.2243 81.7571C33.7668 81.7571 33.4373 81.8327 33.2357 81.9837C33.0225 82.1347 32.9159 82.3143 32.9159 82.5224C32.9159 82.702 32.9837 82.8633 33.1194 83.0061C33.2435 83.1367 33.4897 83.2469 33.8579 83.3367L34.9861 83.5878C35.8584 83.7755 36.529 84.0755 36.9981 84.4878C37.475 84.9041 37.7134 85.5102 37.7134 86.3061C37.7134 87.1388 37.4323 87.7959 36.8702 88.2776C36.3197 88.7592 35.4416 89 34.2359 89Z" fill="black"/>
<path d="M41.1043 88.8898V80.1102H44.8958C45.7216 80.1102 46.3884 80.3837 46.8962 80.9306C47.3963 81.4816 47.6464 82.1735 47.6464 83.0061C47.6464 83.8633 47.3963 84.5673 46.8962 85.1184C46.3884 85.6776 45.7216 85.9571 44.8958 85.9571H42.9768V88.8898H41.1043ZM42.9768 84.2H44.5236C45.3339 84.2 45.739 83.802 45.739 83.0061C45.739 82.6306 45.6324 82.3429 45.4192 82.1429C45.2021 81.951 44.9036 81.8551 44.5236 81.8551H42.9768V84.2Z" fill="black"/>
<path d="M51.1013 88.8898V80.1102H57.056V81.8673H52.9738V83.4837H56.6896V85.2408H52.9738V87.1449H57.056V88.8898H51.1013Z" fill="black"/>
<path d="M64.1977 89C62.9184 89 61.9259 88.5796 61.2204 87.7388C60.5109 86.8939 60.1562 85.8184 60.1562 84.5122C60.1562 83.1857 60.507 82.1041 61.2087 81.2673C61.9182 80.4224 62.9145 80 64.1977 80C65.2444 80 66.1051 80.3306 66.7796 80.9918C67.462 81.6612 67.8322 82.4714 67.8903 83.4224H65.983C65.9481 82.9694 65.7775 82.5816 65.4712 82.2592C65.1688 81.9408 64.7443 81.7816 64.1977 81.7816C63.5076 81.7816 62.9785 82.0143 62.6102 82.4796C62.2458 82.9408 62.0636 83.6184 62.0636 84.5122C62.0636 85.398 62.2458 86.0714 62.6102 86.5327C62.9785 87.002 63.5076 87.2367 64.1977 87.2367C64.7211 87.2367 65.134 87.0898 65.4363 86.7959C65.7271 86.5143 65.9132 86.1388 65.9946 85.6694H67.8903C67.8089 86.6122 67.4271 87.402 66.7448 88.0388C66.0586 88.6796 65.2096 89 64.1977 89Z" fill="black"/>
<path d="M73.0898 88.8898V81.8796H70.6881V80.1102H77.3814V81.8796H74.9739V88.8898H73.0898Z" fill="black"/>
<path d="M85.6687 85.5531L87.6807 88.7673V88.8898H85.4884L83.6915 85.7918H82.5227V88.8898H80.6502V80.1102H84.4649C85.3139 80.1102 86.004 80.3837 86.5351 80.9306C87.0507 81.4735 87.3085 82.1327 87.3085 82.9082C87.3085 83.5245 87.1651 84.0673 86.8782 84.5367C86.5836 85.002 86.1804 85.3408 85.6687 85.5531ZM82.5227 81.8673V84.0347H84.3661C84.7111 84.0347 84.9689 83.9265 85.1395 83.7102C85.3062 83.498 85.3895 83.2347 85.3895 82.9204C85.3895 82.6306 85.3062 82.3796 85.1395 82.1673C84.9612 81.9673 84.7034 81.8673 84.3661 81.8673H82.5227Z" fill="black"/>
<path d="M94.4677 89C93.1806 89 92.1843 88.5796 91.4787 87.7388C90.7693 86.8939 90.4145 85.8143 90.4145 84.5C90.4145 83.1816 90.7693 82.1 91.4787 81.2551C92.1804 80.4184 93.1767 80 94.4677 80C95.7664 80 96.7666 80.4184 97.4683 81.2551C98.1661 82.0878 98.5151 83.1694 98.5151 84.5C98.5151 85.8265 98.1661 86.9061 97.4683 87.7388C96.7627 88.5796 95.7625 89 94.4677 89ZM94.4677 87.2245C95.1616 87.2245 95.6928 86.9898 96.0611 86.5204C96.4255 86.0592 96.6077 85.3857 96.6077 84.5C96.6077 83.6061 96.4255 82.9286 96.0611 82.4673C95.7005 82.0102 95.1694 81.7816 94.4677 81.7816C93.7621 81.7816 93.2291 82.0102 92.8685 82.4673C92.5041 82.9286 92.3219 83.6061 92.3219 84.5C92.3219 85.3735 92.508 86.0469 92.8802 86.5204C93.2485 86.9898 93.7776 87.2245 94.4677 87.2245Z" fill="black"/>
<path d="M105.378 89C104.358 89 103.517 88.6918 102.854 88.0755C102.187 87.4633 101.854 86.5776 101.854 85.4184V80.1102H103.72V85.3939C103.72 86.6306 104.273 87.249 105.378 87.249C106.49 87.249 107.047 86.6306 107.047 85.3939V80.1102H108.925V85.4184C108.925 86.5776 108.595 87.4633 107.936 88.0755C107.262 88.6918 106.409 89 105.378 89Z" fill="black"/>
<path d="M114.485 88.8898V81.8796H112.083V80.1102H118.776V81.8796H116.369V88.8898H114.485Z" fill="black"/>
<path d="M122.045 88.8898V80.1102H128V81.8673H123.918V83.4837H127.634V85.2408H123.918V87.1449H128V88.8898H122.045Z" fill="black"/>
<path d="M95.1969 33.3994C95.2921 33.3451 95.3872 33.2892 95.4823 33.2348L95.511 33.256L95.5141 33.2122C95.5518 33.2227 95.5775 33.2107 95.5911 33.1729C95.6454 33.1412 95.7013 33.108 95.7557 33.0763L95.7542 33.0778C95.8176 33.04 95.8825 33.0023 95.946 32.9645V32.9705C96.6255 32.6715 97.2688 32.3121 97.8638 31.8651C99.7318 30.7945 101.601 29.7253 103.469 28.6546C104.163 28.2574 104.865 27.8724 105.546 27.4526C106.25 27.0176 106.263 26.6537 105.575 26.2414C104.631 25.6766 103.661 25.1557 102.702 24.615C102.488 24.3991 102.236 24.2496 101.938 24.1786C101.84 24.1197 101.742 24.0623 101.644 24.0034C100.825 23.4371 99.9674 22.9388 99.0674 22.5144L99.0598 22.5099C99.0024 22.3861 98.8967 22.3514 98.7714 22.3544C98.717 22.2336 98.6083 22.2019 98.4905 22.1898C98.0813 21.8243 97.589 21.6008 97.1012 21.3683C97.0499 21.3456 96.9985 21.3214 96.9472 21.2988C96.852 21.2429 96.7584 21.187 96.6633 21.1312L96.6678 21.1357C96.6482 21.0496 96.6044 20.9953 96.5062 21.0058C96.4745 20.9741 96.4383 20.962 96.3945 20.9711C96.2872 20.9077 96.1815 20.8442 96.0758 20.7793C95.9958 20.7355 95.9173 20.6902 95.8372 20.6464C95.4974 20.3414 95.0988 20.136 94.6805 19.9669L94.6427 19.9472L94.6201 19.8959L94.5702 19.9095C94.4675 19.8627 94.3664 19.8143 94.2637 19.7675C94.161 19.5848 93.9949 19.5002 93.7955 19.467C93.572 19.2677 93.3198 19.1167 93.0314 19.0276C92.8245 18.8056 92.5693 18.6651 92.2779 18.5866C92.2582 18.5504 92.228 18.5368 92.1873 18.5458C92.1102 18.3903 91.9728 18.3314 91.8127 18.3087L91.7825 18.2891C91.1604 17.901 90.5624 17.4676 89.8677 17.2079C89.8043 17.1641 89.7409 17.1203 89.6774 17.0765C89.6246 16.9587 89.5173 16.9406 89.4071 16.9285L89.3965 16.9209C89.2395 16.7488 89.0432 16.6461 88.8197 16.5933L88.8242 16.5963C88.6989 16.4468 88.5509 16.338 88.347 16.326L88.3259 16.3184C88.2866 16.2867 88.2473 16.2565 88.2081 16.2248C87.7671 15.959 87.3337 15.6811 86.8852 15.4289C86.2645 15.0816 85.8538 15.3096 85.8462 16.0239C85.8311 17.6594 85.8221 19.2949 85.8508 20.9303C85.8598 21.4528 85.7103 21.6054 85.1788 21.6054C77.7052 21.5887 70.2331 21.5887 62.7595 21.6069C62.2219 21.6084 62.0859 21.4468 62.0875 20.9273C62.1026 14.2088 62.1026 7.49022 62.0859 0.773189C62.0844 0.18575 62.2445 0.012085 62.8561 0.012085C74.4055 0.0317166 85.955 0.019638 97.5044 0.0286987C100.611 0.031719 103.643 0.513445 106.573 1.57808C106.689 1.62037 106.816 1.63245 106.938 1.65812C107.153 1.84537 107.408 1.93296 107.687 1.95864L107.692 1.96014C108.01 2.18515 108.356 2.34523 108.741 2.41922H108.74C108.805 2.54456 108.916 2.56872 109.043 2.55966C109.057 2.59742 109.083 2.61101 109.122 2.60044C109.215 2.73182 109.335 2.81789 109.502 2.81941C109.649 2.88736 109.797 2.95532 109.943 3.02327C110.007 3.14861 110.118 3.18033 110.247 3.18033L110.242 3.17731C110.295 3.21204 110.348 3.24677 110.401 3.2815C110.431 3.32228 110.472 3.3404 110.523 3.33587C110.65 3.4899 110.798 3.60769 111.005 3.62883C111.015 3.66357 111.038 3.67565 111.071 3.66357C111.162 3.81156 111.293 3.8931 111.469 3.90065L111.487 3.91576C111.526 3.95049 111.567 3.98371 111.606 4.01844C111.657 4.03808 111.71 4.05771 111.761 4.07734C112.051 4.41561 112.427 4.63005 112.823 4.81881C112.887 4.86865 112.95 4.91848 113.013 4.96831C113.063 5.07855 113.151 5.13594 113.27 5.14349C115.199 6.66871 116.944 8.37817 118.453 10.3232C118.82 10.8744 119.146 11.4558 119.607 11.9406C119.626 11.9889 119.646 12.0357 119.664 12.084C119.699 12.1278 119.735 12.1701 119.77 12.2139L119.779 12.226C119.978 12.7938 120.336 13.2725 120.655 13.7723C120.626 13.9581 120.751 14.0698 120.854 14.1937C120.92 14.4866 121.058 14.7433 121.263 14.9623L121.262 14.9593C121.315 15.2976 121.461 15.5951 121.641 15.8805C121.681 15.9741 121.721 16.0692 121.762 16.1629C121.792 16.2323 121.82 16.3018 121.851 16.3713C121.882 16.4543 121.914 16.5374 121.946 16.6204C121.971 16.6718 121.999 16.7216 122.024 16.773C122.015 16.8243 122.026 16.8711 122.054 16.9134C122.062 17.1958 122.16 17.4465 122.322 17.6745C122.352 17.7787 122.382 17.8829 122.412 17.9856C122.379 18.0898 122.42 18.1668 122.501 18.2287L122.514 18.268C122.497 18.3918 122.517 18.502 122.631 18.576L122.633 18.5791C122.631 18.792 122.622 19.0064 122.785 19.1786C122.797 19.2314 122.81 19.2828 122.822 19.3356C122.847 19.4111 122.873 19.4882 122.899 19.5637C123.21 21.4362 123.565 23.2982 123.607 25.2115C123.684 28.7679 123.036 32.1838 121.796 35.5015C121.466 36.249 121.135 36.9965 120.804 37.744L120.809 37.738C120.769 37.7969 120.732 37.8543 120.692 37.9132C120.531 38.2077 120.371 38.5006 120.209 38.7951C120.174 38.851 120.141 38.9068 120.106 38.9627C120.067 38.9914 120.048 39.0307 120.049 39.079C119.847 39.2542 119.69 39.4595 119.634 39.7284L119.626 39.745C119.536 39.8235 119.41 39.8778 119.427 40.0319C119.382 40.1149 119.336 40.198 119.291 40.2795C119.086 40.4547 118.91 40.6495 118.845 40.9229C118.802 40.9802 118.756 41.0361 118.713 41.0935C118.673 41.1433 118.633 41.1917 118.593 41.2415L118.571 41.2717C118.539 41.3079 118.506 41.3427 118.474 41.3789C117.039 43.2364 115.386 44.8779 113.575 46.3638C113.385 46.4016 113.237 46.4952 113.157 46.6794C112.811 46.8425 112.814 47.0479 113.083 47.285C113.137 47.5115 113.25 47.7018 113.438 47.8453L113.453 47.8649C113.494 47.9193 113.533 47.9721 113.574 48.0265C113.598 48.0778 113.622 48.1292 113.646 48.179C113.676 48.2107 113.708 48.2424 113.738 48.2757L113.765 48.3104C113.793 48.4991 113.856 48.6653 114.034 48.7649L114.042 48.774C114.084 48.8329 114.126 48.8918 114.17 48.9507C114.395 49.2965 114.62 49.6438 114.845 49.9896C114.878 50.0289 114.912 50.0682 114.945 50.1074L114.957 50.1301C114.998 50.189 115.037 50.2494 115.078 50.3083C115.075 50.3611 115.094 50.4019 115.137 50.4306C115.277 50.7175 115.41 51.009 115.677 51.2083L115.673 51.2023C115.716 51.2778 115.762 51.3533 115.806 51.4288C115.795 51.4681 115.809 51.4907 115.848 51.4967C115.893 51.5541 115.937 51.6115 115.982 51.6689C116.003 51.7127 116.025 51.7565 116.047 51.8003C116.082 51.8441 116.115 51.8879 116.15 51.9317L116.159 51.9437C116.201 52.0041 116.242 52.0646 116.284 52.125C116.28 52.1793 116.299 52.2216 116.342 52.2548C116.316 52.3454 116.372 52.3787 116.446 52.3998C116.472 52.4481 116.497 52.498 116.524 52.5463C116.54 52.6928 116.633 52.7804 116.752 52.8483L116.755 52.8528C116.754 52.9676 116.798 53.0552 116.908 53.1005C116.908 53.1443 116.929 53.173 116.971 53.1866C117.042 53.2893 117.115 53.392 117.186 53.4946C117.181 53.5475 117.202 53.5868 117.249 53.6124C117.286 53.6577 117.322 53.703 117.36 53.7483L117.364 53.7574C117.405 53.8223 117.446 53.8888 117.486 53.9537C117.58 54.0972 117.674 54.2391 117.767 54.3826C117.816 54.5819 117.9 54.7541 118.092 54.8538C118.14 54.9383 118.189 55.0229 118.235 55.1075C118.214 55.2313 118.299 55.2766 118.391 55.3158C118.383 55.3612 118.4 55.3944 118.438 55.4185C118.397 55.7462 118.696 55.8459 118.856 56.0392C118.882 56.0875 118.906 56.1343 118.932 56.1827C118.962 56.2219 118.992 56.2627 119.021 56.302C119.04 56.3593 119.06 56.4167 119.078 56.4726C118.992 56.7142 119.178 56.7157 119.324 56.752C119.363 56.8214 119.404 56.8909 119.443 56.9604L119.424 57.0012L119.468 57.0238C119.525 57.0933 119.581 57.1627 119.638 57.2322C119.672 57.4179 119.691 57.6128 119.93 57.6596C119.974 57.7215 120.016 57.7834 120.058 57.8453C120.18 58.3285 120.377 58.765 120.834 59.0292L120.84 59.0398C120.896 59.3071 121.047 59.5095 121.263 59.6695C121.263 59.6695 121.257 59.662 121.259 59.662C121.298 59.7254 121.339 59.7888 121.378 59.8508C121.378 59.8508 121.373 59.8568 121.375 59.8568C121.533 60.2298 121.73 60.5786 122.036 60.855L122.038 60.8565C122.064 61.0573 122.169 61.2038 122.335 61.3126C122.438 61.4621 122.539 61.6131 122.642 61.7626C122.686 61.8215 122.728 61.8804 122.772 61.9393L122.766 61.9332C122.905 62.3515 123.157 62.6958 123.463 63.0039C123.589 63.1957 123.716 63.386 123.841 63.5777C123.841 63.7031 123.897 63.7937 124.01 63.848C124.051 63.91 124.092 63.9734 124.132 64.0353C124.169 64.2331 124.27 64.3872 124.447 64.4883L124.445 64.4868C124.478 64.7118 124.59 64.89 124.774 65.0229C124.826 65.0909 124.877 65.1603 124.93 65.2283C125.108 65.63 125.292 66.0256 125.649 66.308L125.646 66.3035C125.706 66.5693 125.836 66.7883 126.065 66.9438L126.083 66.894L126.062 66.9423C126.103 67.1764 126.23 67.3576 126.417 67.498C126.444 67.5463 126.472 67.5932 126.499 67.6415C126.559 67.8469 126.668 68.0175 126.858 68.1262C127.337 68.8888 127.799 69.6635 128.3 70.4126C128.602 70.8656 128.462 70.9456 127.986 70.9456C119.584 70.9366 111.18 70.9336 102.778 70.9502C102.299 70.9517 102.05 70.7493 101.817 70.3944C100.733 68.7424 99.6412 67.0963 98.5479 65.4503C98.3274 65.1196 98.0843 64.8055 97.8502 64.4838C97.8744 64.2603 97.7324 64.1335 97.5769 64.0142C97.5406 63.9689 97.5044 63.922 97.4682 63.8767C97.4425 63.7499 97.4032 63.6336 97.2749 63.5732L97.2764 63.5747C97.1269 63.2365 96.9789 62.8982 96.6723 62.6656C96.6497 62.6158 96.627 62.566 96.6059 62.5176C96.5727 62.4799 96.5409 62.4406 96.5077 62.4029L96.4896 62.3787C96.4518 62.3198 96.4126 62.2609 96.3748 62.202C96.3386 62.1492 96.3023 62.0978 96.2661 62.045C96.251 61.9211 96.2117 61.8124 96.0834 61.7611C95.9867 61.61 95.8886 61.4575 95.7919 61.3065C95.7436 61.1117 95.65 60.9501 95.4703 60.8474L95.4733 60.8505C95.437 60.6239 95.3132 60.4518 95.1426 60.3068C95.0942 60.2404 95.0474 60.1739 94.9991 60.1075C94.9598 59.9187 94.8753 59.7601 94.7001 59.6635L94.6925 59.6544C94.6759 59.5472 94.6684 59.4355 94.54 59.3932C94.4524 59.2694 94.3633 59.144 94.2758 59.0202L94.2924 58.9749L94.2425 58.9553C94.1912 58.8858 94.1398 58.8178 94.0885 58.7484C94.0809 58.54 93.9496 58.4116 93.7955 58.2968L93.794 58.2938C93.7563 58.1035 93.6596 57.951 93.4965 57.8423C93.4724 57.794 93.4482 57.7456 93.4225 57.6958C93.3546 57.4935 93.2534 57.3168 93.0556 57.2126C93.0526 57.1627 93.0359 57.1189 93.0042 57.0812C92.9665 57.0329 92.9287 56.9845 92.8925 56.9362L92.8895 56.9317C92.8864 56.8139 92.8396 56.7233 92.7294 56.6704C92.6841 56.6055 92.6403 56.5406 92.595 56.4756C92.3896 56.0498 92.1555 55.6405 91.8248 55.2962L91.8142 55.2781C91.7523 54.9957 91.5741 54.7888 91.3718 54.597C91.2555 54.4173 91.1377 54.2376 91.0214 54.0564C90.9882 54.0141 90.955 53.9718 90.9233 53.9296L90.9142 53.916C90.887 53.7529 90.8161 53.6245 90.6469 53.5717C90.431 52.9419 89.9311 52.4859 89.6336 51.906C89.4841 51.6145 89.2229 51.6674 88.9767 51.6659C88.1462 51.6644 87.3141 51.7006 86.4865 51.6538C85.9248 51.6221 85.8387 51.8441 85.8387 52.3485C85.8553 58.1609 85.8493 63.9749 85.8478 69.7889C85.8478 70.9336 85.8478 70.9335 84.6684 70.9335C77.5964 70.9381 70.526 70.9502 63.4541 70.9411C62.0165 70.9396 62.1086 71.2129 62.1086 69.6318C62.1086 57.2503 62.1146 44.8688 62.1177 32.4873C62.1177 32.3876 62.1041 32.2865 62.098 32.1868C62.317 31.9995 62.6085 32.1249 62.8455 32.0146C67.4741 32.0222 72.1011 32.0328 76.7296 32.0388C79.7484 32.0418 82.7671 32.0403 85.7858 32.0403C85.8024 32.365 85.8342 32.6881 85.8342 33.0128C85.8387 34.5139 85.8311 36.0165 85.8372 37.5175C85.8417 38.4281 86.2011 38.6335 87.0121 38.1956C87.1389 38.1276 87.2431 38.0174 87.3579 37.9268C87.4002 37.9343 87.4319 37.9207 87.4545 37.883C87.743 37.8045 87.9967 37.664 88.2051 37.445L88.2096 37.442C88.2987 37.3892 88.3878 37.3378 88.4769 37.285C88.6415 37.1898 88.8046 37.0947 88.9692 36.9996C89.1715 36.9724 89.3331 36.8833 89.4388 36.7036C89.4872 36.7006 89.5309 36.6855 89.5717 36.6583C89.7741 36.6537 89.913 36.5435 90.0217 36.3834C90.1773 36.3019 90.3343 36.2218 90.4899 36.1403C90.5639 36.1856 90.585 36.1388 90.5956 36.0784L90.6152 36.0603C90.7708 36.021 90.9142 35.9651 91.0033 35.8202C91.0396 35.8322 91.0652 35.8202 91.0788 35.7839C91.9653 35.3294 92.8457 34.8627 93.6581 34.2813C93.7789 34.2693 93.8907 34.2436 93.9466 34.1182C94.0704 34.1213 94.1776 34.0911 94.2335 33.9642L94.2425 33.9582C94.605 33.8585 94.9176 33.6576 95.1969 33.3994Z" fill="black"/>
<path d="M0.0078125 70.8369C0.00932262 58.5355 0.0123419 46.2325 0.013852 33.931C0.013852 33.629 0.0334836 33.3255 0.013852 33.0249C-0.0359821 32.3001 0.330978 32.0298 1.01204 32.0328C2.77285 32.0418 4.53365 32.0343 6.29446 32.0358C23.2758 32.0373 40.2571 32.0403 57.2385 32.0418C57.3381 32.0418 57.4393 32.0283 57.539 32.0222C57.8093 32.1642 57.6598 32.4164 57.696 32.6202V32.6217C57.5586 32.7425 57.5435 32.9056 57.545 33.0733V33.0748C57.385 33.5792 57.2264 34.082 57.0663 34.5864C57.0437 34.6332 57.021 34.68 56.9984 34.7253C56.9138 34.973 56.8292 35.2207 56.7447 35.4698C56.2554 36.4816 55.7661 37.4934 55.2783 38.5052C55.1303 38.7604 54.9839 39.0156 54.8359 39.2708L54.8344 39.2753C54.6698 39.3811 54.5792 39.5306 54.5565 39.7238C54.5157 39.7405 54.4976 39.7692 54.4991 39.813C54.1155 40.3068 53.7138 40.7885 53.439 41.3563L53.4466 41.3503C53.3982 41.4076 53.3514 41.465 53.3031 41.5239L53.3091 41.5179C53.2623 41.5738 53.217 41.6296 53.1702 41.6855L53.1687 41.6885C53.1325 41.7368 53.0962 41.7852 53.0615 41.8335C52.9905 41.9226 52.9195 42.0102 52.8501 42.0993C52.8002 42.1612 52.7519 42.2216 52.7021 42.2835C51.5665 43.5596 50.3719 44.7767 49.0868 45.9018C49.0264 45.9516 48.966 45.9999 48.9056 46.0498C48.815 46.1207 48.7259 46.1902 48.6353 46.2597C48.587 46.2959 48.5387 46.3306 48.4903 46.3669L48.4873 46.3684C48.4314 46.4152 48.3756 46.4605 48.3212 46.5073L48.3272 46.5013C48.2412 46.5617 48.1551 46.6236 48.069 46.684L48.0433 46.7036C47.9935 46.7444 47.9452 46.7837 47.8953 46.8245C47.8364 46.8667 47.7791 46.9075 47.7202 46.9498C47.4423 47.057 47.1826 47.1884 46.9998 47.4361L46.9817 47.4466C46.9258 47.4874 46.8715 47.5297 46.8156 47.5705L46.8201 47.5674C46.6948 47.5705 46.5981 47.6203 46.5438 47.7366L46.5317 47.7441C46.2463 47.8211 46.0062 47.9691 45.8144 48.1957C45.6528 48.2802 45.4912 48.3663 45.3296 48.4509C45.088 48.4962 44.8857 48.617 44.706 48.7786C43.7501 49.2059 42.7941 49.6333 41.8382 50.0606C41.7899 50.0878 41.7431 50.115 41.6948 50.1422C41.6449 50.1573 41.5951 50.1724 41.5453 50.189C41.3354 50.1905 41.1436 50.2373 40.9971 50.4019C40.9261 50.4186 40.8567 50.4367 40.7857 50.4533C40.2707 50.5469 39.7663 50.6813 39.2891 50.9033C39.2333 50.9154 39.1774 50.9275 39.1215 50.9411C38.7531 50.9697 38.3921 51.0241 38.0584 51.1963L37.9859 51.1902L37.918 51.2144C37.6476 51.1691 37.4015 51.2446 37.1659 51.3654C37.0647 51.3745 36.9651 51.382 36.8639 51.3911C36.6343 51.3624 36.4093 51.3594 36.216 51.5179C36.1315 51.5225 36.0454 51.5255 35.9608 51.53C35.6497 51.5255 35.3296 51.4469 35.0472 51.6493C34.6938 51.6599 34.342 51.672 33.9886 51.6825C33.5386 51.6901 33.0886 51.6976 32.6386 51.7037C30.2178 51.7037 27.7971 51.7037 25.3764 51.7052C25.1287 51.7052 24.8826 51.7052 24.6349 51.7067C24.5307 51.7067 24.4265 51.7067 24.3223 51.7067C23.6805 51.5557 23.7772 51.9951 23.7772 52.3772C23.7787 58.2878 23.7681 64.1984 23.7923 70.1106C23.7953 70.775 23.6141 70.9547 22.9496 70.9532C15.8822 70.9336 8.81334 70.9457 1.74596 70.9517C1.47112 70.9517 1.19628 70.9789 0.921438 70.994C0.818749 70.9955 0.71606 70.997 0.611862 71C0.411016 70.9426 0.210169 70.8898 0.0078125 70.8369Z" fill="black"/>
<path d="M23.6833 18.0444V57.5166L0 42.8555V18.0444H23.6833Z" fill="black"/>
<path d="M40.9395 1.48446C40.9893 1.49201 41.0391 1.49806 41.089 1.50561C41.3049 1.69739 41.5692 1.75931 41.8455 1.78951C41.8954 1.79706 41.9452 1.80461 41.9935 1.81216C42.0479 1.9677 42.1672 1.9677 42.2986 1.94203C42.3937 1.9526 42.4904 1.96166 42.5855 1.97223C42.6504 2.12325 42.7788 2.10512 42.9056 2.09455L42.9343 2.10513L42.9691 2.15798L43.028 2.14741C43.1291 2.1912 43.2288 2.23651 43.33 2.2803C43.5444 2.46605 43.7906 2.58534 44.073 2.62763L44.1017 2.60045L44.0684 2.62159C44.2361 2.82847 44.4913 2.87378 44.7193 2.97042C44.8628 3.0414 45.0077 3.11238 45.1512 3.18335C45.3671 3.40232 45.6269 3.54427 45.9198 3.62884H45.9214C46.024 3.80552 46.2007 3.86442 46.3819 3.91425L46.3925 3.92331C46.3986 4.00486 46.4393 4.04412 46.5239 4.02902C46.5737 4.04714 46.6236 4.06527 46.6749 4.08188C46.7263 4.12416 46.7761 4.16493 46.8274 4.20722C46.838 4.24799 46.8637 4.26611 46.9044 4.26309C46.9799 4.30386 47.0539 4.34464 47.1279 4.3839C47.2095 4.44129 47.2925 4.50018 47.3741 4.55757C47.4405 4.6074 47.507 4.65573 47.5734 4.70556C47.6308 4.74784 47.6897 4.78861 47.7471 4.8309C47.8347 4.90187 47.9238 4.97285 48.0114 5.04383C49.97 6.51016 51.6779 8.23472 53.2243 10.1239C53.2575 10.1616 53.2923 10.1994 53.3255 10.2371C53.3708 10.3006 53.4161 10.364 53.4614 10.4274C53.5807 10.7294 53.7725 10.9816 54.002 11.2066C54.0337 11.2459 54.0655 11.2867 54.0972 11.3259C54.1183 11.4694 54.1651 11.5963 54.3192 11.6491C54.3448 11.6929 54.3705 11.7367 54.3947 11.7805C54.4158 11.9768 54.5155 12.1203 54.6816 12.2214C54.7118 12.2803 54.7405 12.3392 54.7707 12.3966C54.7933 12.4329 54.8145 12.4691 54.8371 12.5069L54.8552 12.5295C54.9036 12.6095 54.9504 12.6896 54.9987 12.7711C55.0727 12.898 55.1482 13.0248 55.2222 13.1517C55.2449 13.1879 55.2675 13.2257 55.2917 13.2619L55.3038 13.2831C55.3385 13.4733 55.3898 13.6546 55.5786 13.7572C55.5952 13.8056 55.6118 13.8524 55.6284 13.9007C55.6466 14.088 55.7326 14.239 55.8821 14.3522C56.0256 14.6618 56.1691 14.9729 56.314 15.2825L56.3004 15.3383L56.3488 15.3761C57.0902 17.2184 57.7169 19.0925 58.0945 21.0496C58.1866 21.5314 58.0612 21.6416 57.6354 21.6008C57.5357 21.5918 57.4345 21.5993 57.3334 21.5993C38.5852 21.6008 19.837 21.6008 1.08881 21.6008C0.166124 21.6008 0.0166206 21.4664 0.0166206 20.5709C0.0136003 13.952 0.022661 7.33468 9.12283e-06 0.71581C-0.001501 0.132902 0.184245 -0.00149759 0.724869 1.25314e-05C11.3697 0.0166239 22.0146 0.0181314 32.6595 0.0256821C34.5743 0.0271922 36.4619 0.295998 38.342 0.619164C39.1454 1.09787 40.0787 1.18395 40.9395 1.48446Z" fill="black"/>
</svg>
