<svg width="577" height="485" viewBox="0 0 577 485" fill="none" xmlns="http://www.w3.org/2000/svg">
<g clip-path="url(#clip0)">
<path d="M345.914 121.534C345.914 121.534 341.014 118.589 336.441 123.824C336.441 123.824 328.275 112.2 293.651 122.266C293.651 122.266 298.224 131.023 301.49 131.023C304.757 131.023 295.284 146.076 286.465 145.422C286.465 145.422 271.439 167.346 282.872 188.616C294.14 209.58 302.235 216.239 313.411 202.641C313.754 202.219 314.137 201.831 314.554 201.483C317.768 198.827 331.998 187.786 337.041 196.019C338.115 197.848 338.423 200.029 337.896 202.084C335.594 211.743 324.83 247.317 293.651 233.119C293.651 233.119 257.316 219.469 265.886 187.133C266.803 183.844 268.132 180.684 269.842 177.73C271.49 174.713 272.506 171.39 272.827 167.965C273.148 164.54 272.768 161.085 271.709 157.813C270.396 153.148 267.433 149.121 263.373 146.483C259.437 144.024 254.249 142.924 250.319 149.802C248.692 152.663 247.834 155.897 247.83 159.19C247.822 162.204 248.382 165.9 250.86 167.673L247.83 173.563C246.182 170.204 244.074 167.091 241.567 164.314C237.37 160.055 234.674 154.542 233.888 148.609C232.778 139.198 234.114 125.147 245.308 108.772C245.308 108.772 260.333 78.6666 288.425 79.3211C316.516 79.9755 340.688 87.5017 345.914 121.534Z" fill="black"/>
<path d="M298.877 160.801C303.756 159.683 308.77 159.269 313.766 159.572C316.283 159.698 318.78 160.077 321.221 160.705C323.712 161.24 326.026 162.399 327.948 164.074C325.729 163.041 323.359 162.372 320.928 162.093C318.527 161.747 316.104 161.496 313.66 161.386C308.775 161.082 303.865 161.059 298.877 160.801Z" fill="black"/>
<path d="M345.914 160.334C344.127 160.878 342.473 161.791 341.06 163.013C340.39 163.567 339.844 164.256 339.458 165.036C339.071 165.815 338.854 166.668 338.818 167.537C338.95 169.321 339.417 171.064 340.194 172.675L342.33 177.935C343.924 181.495 344.85 185.318 345.062 189.213C345.059 190.239 344.871 191.256 344.507 192.216C344.116 193.187 343.477 194.038 342.654 194.683C340.982 195.738 339.008 196.208 337.041 196.019C338.885 195.862 340.641 195.158 342.085 193.998C342.677 193.365 343.124 192.609 343.394 191.785C343.663 190.96 343.75 190.086 343.646 189.224C343.505 187.402 343.136 185.605 342.547 183.876C341.998 182.104 341.342 180.348 340.642 178.599C339.971 176.838 339.245 175.086 338.591 173.281C338.279 172.371 337.961 171.462 337.716 170.502C337.411 169.509 337.307 168.465 337.412 167.431C337.521 166.403 337.855 165.412 338.391 164.528C338.927 163.644 339.65 162.89 340.51 162.319C342.128 161.235 343.98 160.555 345.914 160.334Z" fill="black"/>
<path d="M345.914 121.534C346.526 125.202 346.981 128.889 347.279 132.596C347.619 136.298 347.83 140.01 347.91 143.734C347.968 147.457 347.912 151.187 347.622 154.919C347.452 158.724 346.603 162.467 345.117 165.972C345.096 166.016 345.068 166.056 345.035 166.092C343.889 167.328 342.812 168.629 341.812 169.986C341.315 170.666 340.873 171.385 340.491 172.135C340.065 172.866 339.895 173.718 340.006 174.556C339.744 173.712 339.792 172.803 340.14 171.991C340.441 171.173 340.806 170.379 341.233 169.619C342.086 168.104 343.072 166.668 344.18 165.328L344.098 165.447C344.731 163.772 345.152 162.026 345.353 160.247C345.636 158.452 345.75 156.62 345.885 154.793C346.101 151.128 346.139 147.44 346.16 143.75C346.16 136.365 345.998 128.966 345.914 121.534Z" fill="black"/>
<path d="M326.315 185.671C325.971 186.381 325.692 187.122 325.483 187.883C325.271 188.587 325.224 189.33 325.347 190.055C325.449 190.773 325.762 191.444 326.247 191.983C326.76 192.577 327.33 193.12 327.949 193.603C327.553 193.486 327.164 193.346 326.784 193.185C326.414 192.981 326.065 192.74 325.743 192.467C325.069 191.882 324.614 191.084 324.454 190.206C324.339 189.336 324.469 188.451 324.829 187.65C325.164 186.884 325.673 186.206 326.315 185.671Z" fill="black"/>
<path d="M250.86 167.673C251.99 169.095 252.892 170.684 253.533 172.385C253.877 173.253 254.125 174.155 254.274 175.077C254.355 175.56 254.387 176.05 254.37 176.54L254.36 176.917L254.382 177.121C254.374 177.254 254.403 177.387 254.466 177.504C254.747 178.103 255.241 178.574 255.853 178.823C256.578 179.195 257.342 179.485 258.131 179.688C259.809 180.141 261.535 180.392 263.272 180.435C261.556 181.109 259.697 181.332 257.871 181.083C256.917 180.985 255.984 180.746 255.102 180.372C254.583 180.17 254.109 179.867 253.707 179.481C253.305 179.095 252.984 178.633 252.761 178.122C252.644 177.834 252.586 177.525 252.592 177.214L252.586 176.755L252.6 176.468C252.62 176.072 252.611 175.676 252.573 175.281C252.501 174.443 252.37 173.61 252.182 172.79C251.812 171.109 251.324 169.418 250.86 167.673Z" fill="black"/>
<path d="M247.83 173.563C247.101 176.21 246.073 178.765 244.766 181.178C243.487 183.627 241.943 185.928 240.162 188.038C238.38 190.189 236.266 192.041 233.9 193.523C231.529 194.996 228.814 195.823 226.026 195.922C228.578 195.154 230.976 193.943 233.11 192.345C235.199 190.735 237.101 188.896 238.781 186.861C240.505 184.829 242.1 182.689 243.555 180.455C245.019 178.21 246.473 175.934 247.83 173.563Z" fill="black"/>
<path d="M271.765 250.135C273.829 249.228 275.781 248.084 277.581 246.725C279.367 245.389 281.062 243.934 282.653 242.37C284.293 240.853 285.764 239.156 287.292 237.495L289.516 234.922C290.24 234.045 290.962 233.161 291.759 232.313C291.304 233.374 290.775 234.399 290.248 235.431C289.651 236.416 289.063 237.416 288.407 238.369C287.082 240.28 285.576 242.059 283.91 243.68C282.236 245.314 280.367 246.735 278.347 247.912C276.344 249.13 274.096 249.89 271.765 250.135Z" fill="black"/>
<path d="M239.087 187.449C237.462 185.035 235.451 182.907 233.136 181.147C232.654 180.721 232.07 180.426 231.441 180.293C230.812 180.159 230.159 180.191 229.546 180.385C228.462 181.122 227.685 182.23 227.359 183.501C226.912 184.856 226.591 186.249 226.398 187.663C226.301 188.366 226.215 189.098 226.152 189.774C226.155 190.418 226.212 191.175 226.276 191.879C226.557 194.764 227.091 197.62 227.872 200.412C229.31 206.093 231.543 211.541 234.506 216.594C237.507 221.646 241.098 226.322 245.202 230.524C247.26 232.609 249.399 234.616 251.57 236.573C253.824 238.436 255.978 240.438 258.325 242.148C259.457 243.064 260.705 243.808 261.888 244.646C263.139 245.367 264.341 246.186 265.645 246.798C268.164 248.169 270.843 249.222 273.622 249.93C279.17 251.405 285.067 250.785 290.189 248.188C295.336 245.435 299.66 241.36 302.716 236.381C302.727 236.359 302.746 236.343 302.769 236.336C302.792 236.329 302.817 236.331 302.839 236.342C302.858 236.354 302.873 236.373 302.881 236.396C302.888 236.418 302.887 236.442 302.878 236.464C300.22 241.871 296.042 246.381 290.859 249.441C288.204 250.949 285.284 251.93 282.258 252.33C279.222 252.689 276.147 252.494 273.182 251.752C270.237 251.051 267.403 249.948 264.76 248.472C263.41 247.801 262.184 246.931 260.904 246.155C259.702 245.267 258.43 244.469 257.29 243.508C254.899 241.708 252.807 239.608 250.595 237.634C249.467 236.673 248.51 235.525 247.475 234.467C246.477 233.371 245.397 232.356 244.47 231.197C240.603 226.718 237.091 221.944 233.967 216.918C230.785 211.892 228.251 206.483 226.425 200.82C225.534 197.955 224.952 195.002 224.689 192.013C224.639 191.247 224.594 190.533 224.61 189.702C224.697 188.914 224.803 188.182 224.924 187.429C225.164 185.926 225.543 184.448 226.054 183.014C226.284 182.223 226.669 181.486 227.187 180.845C227.705 180.205 228.344 179.674 229.069 179.284C229.883 178.964 230.785 178.946 231.612 179.232C232.364 179.49 233.066 179.875 233.688 180.371C235.97 182.319 237.856 184.69 239.242 187.354C239.248 187.365 239.252 187.376 239.253 187.388C239.255 187.4 239.254 187.412 239.251 187.423C239.248 187.435 239.242 187.446 239.235 187.455C239.228 187.464 239.219 187.472 239.208 187.478C239.188 187.489 239.164 187.491 239.142 187.486C239.12 187.48 239.1 187.467 239.087 187.449Z" fill="black"/>
<path d="M154.996 212.176C157.375 212.852 159.534 214.145 161.254 215.925C163.027 217.676 164.445 219.754 165.43 222.045C166.417 224.322 166.971 226.764 167.066 229.246C167.113 230.467 167.051 231.69 166.879 232.9C166.672 234.1 166.355 235.28 165.933 236.422C165.509 235.24 165.318 234.099 165.007 232.984C164.673 231.875 164.473 230.772 164.102 229.717C163.51 227.622 162.785 225.568 161.93 223.567C161.072 221.577 160.07 219.653 158.93 217.81C157.736 215.852 156.422 213.971 154.996 212.176Z" fill="black"/>
<path d="M163.32 257.989C164.055 266.475 164.414 274.958 164.64 283.44C164.89 291.923 164.916 300.404 164.9 308.885C164.812 317.366 164.677 325.846 164.319 334.325C163.985 342.804 163.515 351.282 162.666 359.757C161.927 351.272 161.566 342.788 161.341 334.306C161.092 325.823 161.065 317.342 161.086 308.861C161.179 300.38 161.314 291.9 161.673 283.421C162.008 274.942 162.476 266.464 163.32 257.989Z" fill="black"/>
<path d="M338.008 201.929C344.997 206.31 351.857 210.872 358.589 215.616C361.958 217.985 365.3 220.397 368.614 222.851L373.547 226.626C374.412 227.275 375.226 227.99 375.983 228.763L377.156 229.989L378.142 231.242C380.699 234.544 383.031 238.015 385.122 241.631C387.23 245.193 389.282 248.78 391.276 252.39C395.218 259.642 399.278 266.812 403.456 273.902C405.545 277.45 407.674 280.975 409.844 284.476L413.089 289.725C414.05 291.441 415.193 293.049 416.498 294.521C417.88 295.879 419.527 297.225 420.959 298.917C422.656 300.687 423.677 302.998 423.845 305.447C423.717 307.957 422.625 310.321 420.798 312.044C420.017 312.835 419.196 313.584 418.339 314.29C417.571 314.91 416.824 315.561 416.094 316.232C414.626 317.584 413.275 319.003 411.901 320.53C410.502 322.078 409.054 323.581 407.584 325.066C404.617 328.034 401.466 330.812 398.151 333.384C394.771 336.006 391.091 338.216 387.19 339.966C385.143 340.833 382.993 341.429 380.793 341.739C378.482 342.083 376.124 341.877 373.907 341.14C373.554 341.033 373.252 340.799 373.061 340.482L373.049 340.462C371.617 338.084 370.049 335.714 368.462 333.394C366.878 331.064 365.218 328.79 363.484 326.571C361.742 324.37 359.882 322.266 357.909 320.27C356.011 318.216 353.686 316.604 351.097 315.549L351.083 315.544C351.038 315.528 351 315.495 350.978 315.453C350.955 315.41 350.95 315.36 350.963 315.314C350.975 315.267 351.005 315.227 351.046 315.202C351.087 315.176 351.136 315.167 351.184 315.177C354.012 315.908 356.626 317.3 358.813 319.239C361.056 321.056 363.158 323.042 365.101 325.179C369.005 329.414 372.592 333.931 375.833 338.694L374.976 338.017C378.609 338.759 382.388 338.209 385.66 336.46C389.232 334.754 392.59 332.63 395.663 330.133C398.847 327.656 401.892 325.005 404.783 322.19C406.246 320.789 407.693 319.367 409.093 317.898C410.512 316.404 412.041 314.877 413.64 313.486C414.443 312.786 415.266 312.106 416.117 311.456C416.887 310.812 417.619 310.262 418.264 309.606C419.513 308.527 420.33 307.03 420.561 305.394C420.462 303.696 419.786 302.084 418.646 300.824C417.477 299.317 416.001 297.953 414.568 296.313C414.19 295.885 413.836 295.436 413.509 294.968L412.682 293.566L411.194 290.83L408.284 285.372C406.364 281.726 404.403 278.105 402.402 274.51C398.387 267.326 394.155 260.261 389.57 253.427C385.026 246.603 380.416 239.695 375.492 233.39L374.562 232.224L373.591 231.23C372.925 230.517 372.203 229.859 371.432 229.262L366.635 225.444L356.949 217.825C350.478 212.752 344.089 207.556 337.784 202.239C337.747 202.207 337.723 202.163 337.717 202.115C337.711 202.067 337.724 202.018 337.752 201.979C337.781 201.94 337.823 201.913 337.87 201.904C337.918 201.894 337.967 201.904 338.008 201.929V201.929Z" fill="black"/>
<path d="M363.553 263.661C360.212 276.236 357.058 288.843 354.423 301.498C353.068 307.771 352.122 314.126 351.59 320.523C351.41 323.598 351.391 326.994 351.122 330.285C350.859 333.641 350.299 336.968 349.447 340.224C347.442 346.662 344.229 352.657 339.98 357.888C338.017 360.51 335.937 363.047 333.989 365.594C333.052 366.86 332.102 368.115 331.261 369.47C330.359 370.776 329.543 372.149 328.731 373.527C325.536 379.122 322.679 384.904 320.175 390.843C317.534 396.758 315.257 402.835 313.031 408.951C315.865 396.167 320.264 383.783 326.128 372.079C327.642 369.12 329.376 366.28 331.316 363.582C333.24 360.917 335.211 358.374 337.068 355.743C340.976 350.822 343.928 345.211 345.773 339.199C346.591 336.173 347.139 333.08 347.411 329.956C347.715 326.771 347.705 323.661 347.997 320.253C348.679 313.703 349.86 307.214 351.529 300.845C354.733 288.203 358.749 275.783 363.553 263.661Z" fill="black"/>
<path d="M507.512 433.95C506.753 433.95 506.025 433.649 505.487 433.111C504.95 432.574 504.648 431.845 504.648 431.084C504.647 430.324 504.948 429.594 505.485 429.056C506.021 428.518 506.749 428.216 507.508 428.215L574.137 428.127H574.141C574.517 428.127 574.889 428.201 575.236 428.345C575.584 428.489 575.899 428.7 576.165 428.966C576.431 429.232 576.642 429.548 576.786 429.896C576.93 430.243 577.005 430.616 577.005 430.993C577.005 431.369 576.931 431.742 576.788 432.09C576.644 432.438 576.433 432.754 576.168 433.021C575.902 433.287 575.587 433.499 575.24 433.643C574.893 433.787 574.52 433.862 574.145 433.862L507.516 433.95H507.512Z" fill="black"/>
<path d="M83.6544 432.047L-0.356445 432.841L-0.302406 438.576L83.7084 437.782L83.6544 432.047Z" fill="black"/>
<path d="M316.516 173.018C317.221 172.993 317.89 172.695 318.381 172.187C318.871 171.678 319.145 170.998 319.145 170.291C319.145 169.584 318.871 168.904 318.381 168.395C317.89 167.886 317.221 167.588 316.516 167.564C315.81 167.588 315.141 167.886 314.651 168.395C314.16 168.904 313.886 169.584 313.886 170.291C313.886 170.998 314.16 171.678 314.651 172.187C315.141 172.695 315.81 172.993 316.516 173.018Z" fill="black"/>
<path d="M388.557 455.707C398.177 462.276 409.002 466.869 420.406 469.218C426.069 470.312 431.84 470.726 437.6 470.452C443.347 470.141 449.039 469.173 454.567 467.568C465.607 464.201 476.022 459.046 485.4 452.307C487.754 450.716 489.979 448.941 492.054 446.998C494.125 445.031 496.076 442.94 497.896 440.737C501.536 436.331 504.685 431.54 507.288 426.45L507.105 427.223L507.106 427.204L507.106 427.163C507.111 426.91 507.172 426.661 507.286 426.435C509.536 422.01 511.374 417.388 512.777 412.626C514.17 407.842 515.071 402.927 515.464 397.959L515.472 397.855L515.484 397.788C515.511 397.69 515.478 397.736 515.51 397.914L515.494 397.613C516.278 387.557 514.867 377.451 511.358 367.996C507.775 358.557 502.226 349.99 495.081 342.867C488.019 335.865 479.629 330.351 470.405 326.653C461.18 322.954 451.31 321.145 441.376 321.333C431.442 321.52 421.646 323.7 412.568 327.744C403.489 331.788 395.312 337.614 388.519 344.878C381.706 352.168 376.403 360.739 372.918 370.095C369.445 379.572 367.831 389.633 368.166 399.723C368.166 399.749 368.162 399.775 368.153 399.799C368.144 399.823 368.13 399.845 368.112 399.864C368.094 399.883 368.073 399.898 368.05 399.908C368.026 399.919 368.001 399.925 367.975 399.926C367.925 399.926 367.877 399.907 367.84 399.874C367.803 399.841 367.779 399.796 367.774 399.746C366.558 389.512 367.535 379.136 370.638 369.31C373.764 359.381 378.954 350.227 385.867 342.452C392.798 334.616 401.295 328.326 410.808 323.99C420.339 319.663 430.683 317.424 441.147 317.422C451.543 317.319 461.845 319.409 471.382 323.557C480.919 327.704 489.477 333.817 496.501 341.496C503.457 349.075 508.882 357.932 512.474 367.578C516.062 377.241 517.795 387.496 517.583 397.804L517.567 397.503C517.609 397.735 517.605 397.973 517.555 398.203L517.575 398.032C517.435 403.198 516.759 408.335 515.556 413.361C514.37 418.408 512.632 423.309 510.372 427.973L510.553 427.204L510.553 427.223C510.557 427.48 510.5 427.733 510.387 427.964L510.371 427.997C507.728 433.377 504.425 438.404 500.537 442.963C498.603 445.245 496.533 447.407 494.34 449.439C492.106 451.447 489.727 453.287 487.222 454.942C477.506 461.779 466.693 466.898 455.253 470.078C443.759 473.206 431.681 473.501 420.049 470.941C408.57 468.198 397.775 463.124 388.334 456.031C388.293 456.001 388.265 455.956 388.256 455.905C388.247 455.854 388.259 455.802 388.288 455.76C388.317 455.718 388.361 455.689 388.411 455.679C388.462 455.669 388.514 455.679 388.557 455.707L388.557 455.707Z" fill="black"/>
<path d="M405.388 329.408C404.865 330.814 404.424 332.239 403.981 333.658C403.546 335.079 403.121 336.499 402.739 337.931C402.315 339.346 401.972 340.787 401.634 342.23L400.529 346.517L400.585 346.159C400.581 346.321 400.549 346.482 400.492 346.634C400.423 346.82 400.317 346.99 400.181 347.134C400.044 347.277 399.88 347.392 399.698 347.471C399.516 347.55 399.32 347.592 399.122 347.595L400.512 346.535C399.708 350.686 398.716 354.772 397.87 358.897C397.096 363.038 396.316 367.18 395.662 371.351C394.982 375.519 394.307 379.689 393.738 383.893C393.088 388.087 392.475 392.3 391.745 396.524C391.364 392.257 391.238 387.97 391.367 383.688C391.44 379.403 391.733 375.124 392.246 370.868C392.779 366.616 393.422 362.367 394.356 358.175C394.781 356.07 395.352 353.994 395.938 351.927C396.527 349.86 397.071 347.782 397.709 345.735L399.1 344.674C398.906 344.677 398.715 344.718 398.538 344.796C398.361 344.873 398.201 344.985 398.067 345.125C397.934 345.265 397.831 345.431 397.764 345.612C397.708 345.759 397.678 345.915 397.674 346.072L397.73 345.713C398.784 342.884 399.758 340.045 401.009 337.297C402.224 334.539 403.69 331.898 405.388 329.408Z" fill="black"/>
<path d="M479.452 329.407C482.053 333.892 484.201 338.625 485.865 343.537C486.788 345.967 487.444 348.475 488.241 350.95C488.949 353.446 489.537 355.973 490.186 358.489C492.449 368.622 493.903 378.919 494.535 389.283C495.187 399.626 495.195 409.999 494.559 420.342C494.243 425.505 493.664 430.65 493.171 435.789C492.38 440.903 491.694 446.02 490.785 451.099C490.868 445.926 491.197 440.79 491.38 435.65L491.701 420.241C491.674 417.675 491.661 415.11 491.68 412.548L491.693 408.704L491.556 404.863L491.354 397.185L490.88 389.524C490.273 379.313 489.11 369.143 487.394 359.059L485.922 351.531C485.331 349.047 484.856 346.521 484.157 344.061C482.973 339.061 481.4 334.161 479.452 329.407Z" fill="black"/>
<path d="M440.746 430.397C441.926 429.209 442.929 427.857 443.723 426.382C443.704 428.103 443.666 429.804 443.627 431.524C443.379 443.95 442.902 456.375 442.196 468.8C441.49 456.375 441.013 443.95 440.765 431.524C440.765 431.142 440.746 430.779 440.746 430.397Z" fill="black"/>
<path d="M441.261 418.105C441.261 418.105 442.521 416.595 443.894 414.607C443.875 416.538 443.856 418.488 443.818 420.418C443.157 419.458 442.282 418.666 441.261 418.105Z" fill="black"/>
<path d="M444.028 392.395V396.065L443.971 405.068C442.765 405.167 441.574 405.404 440.422 405.776C440.403 402.526 440.384 399.295 440.365 396.065V392.395C440.441 368.137 440.785 343.898 442.197 319.64C443.589 343.898 443.952 368.137 444.028 392.395Z" fill="black"/>
<path d="M374.522 363.157C385.123 358.437 396.219 354.922 407.601 352.677C418.999 350.343 430.595 349.109 442.228 348.993C448.049 348.819 453.86 349.287 459.667 349.611C462.559 349.934 465.442 350.355 468.326 350.723C469.766 350.926 471.213 351.075 472.645 351.323L476.913 352.241C488.295 354.53 499.357 358.195 509.856 363.157C507.07 362.361 504.305 361.535 501.562 360.678L497.444 359.41C496.067 359.009 494.641 358.767 493.245 358.438L484.873 356.486C482.062 355.947 479.225 355.54 476.408 355.061L472.178 354.367C470.763 354.18 469.336 354.068 467.916 353.914C465.072 353.639 462.234 353.31 459.391 353.077C453.681 352.866 447.984 352.43 442.269 352.662C430.828 352.761 419.41 353.705 408.107 355.486L399.636 356.956C396.833 357.549 394.008 358.077 391.211 358.727C385.587 359.924 380.042 361.453 374.522 363.157Z" fill="black"/>
<path d="M440.499 436.59L458.049 434.322C463.855 433.501 469.647 432.63 475.403 431.585C481.168 430.593 486.908 429.422 492.639 428.191C495.476 427.475 498.34 426.829 501.22 426.194L503.391 425.747L505.525 425.191C506.953 424.826 508.398 424.487 509.86 424.165C508.546 424.846 507.216 425.507 505.868 426.149C504.534 426.81 503.165 427.399 501.766 427.912C498.988 428.959 496.194 429.994 493.374 430.96C487.693 432.745 481.903 434.161 476.04 435.198C464.32 437.364 452.351 437.833 440.499 436.59Z" fill="black"/>
<path d="M367.76 394.23C371.519 394 375.278 393.809 379.037 393.656C378.012 393.931 377.005 394.269 376.022 394.669C373.255 394.536 370.507 394.383 367.76 394.23Z" fill="black"/>
<path d="M516.634 394.23C504.231 394.937 491.828 395.415 479.425 395.663C467.613 395.931 455.821 396.026 444.028 396.065H440.365C438.876 396.065 437.407 396.046 435.919 396.046C436.071 394.459 435.289 393.408 433.076 393.293C431.127 393.24 429.222 393.876 427.695 395.09C427.351 395.357 426.969 395.644 426.531 395.969C414.948 395.893 403.372 395.67 391.802 395.3C391.755 394.888 391.626 394.49 391.423 394.129C391.22 393.768 390.947 393.451 390.619 393.197C407.201 392.624 423.783 392.452 440.365 392.395H444.028C455.821 392.433 467.613 392.528 479.425 392.796C491.828 393.025 504.231 393.503 516.634 394.23Z" fill="black"/>
<path d="M399.13 346.115C399.13 346.118 399.129 346.12 399.128 346.123C399.127 346.125 399.126 346.127 399.124 346.129C399.122 346.131 399.12 346.132 399.118 346.133C399.116 346.134 399.113 346.134 399.111 346.134C397.345 349.476 395.968 353.01 395.008 356.667C394.989 356.705 394.989 356.763 394.97 356.801C393.539 362.325 394.245 363.339 392.356 368.786C391.287 371.864 390.333 373.642 390.867 376.184C391.375 377.785 392.02 379.339 392.795 380.829C393.024 381.307 393.253 381.823 393.52 382.397C394.836 385.303 395.161 385.991 394.874 386.87C394.512 387.941 393.672 388.074 392.127 389.011C391.582 389.33 391.065 389.694 390.581 390.101C389.665 390.791 388.821 391.572 388.062 392.433C382.342 392.373 376.71 393.844 371.748 396.696C370.565 397.365 369.286 398.034 367.912 398.741H367.893C367.836 397.919 367.817 397.097 367.779 396.275C367.76 395.587 367.76 394.918 367.76 394.23C367.746 383.502 370.05 372.898 374.514 363.147L374.534 363.128H374.553C376.347 359.177 378.493 355.396 380.964 351.831C389.265 343.726 398.214 339.52 401.191 339.539C401.513 339.51 401.834 339.606 402.087 339.807C402.755 340.476 401.152 342.311 399.13 346.115Z" fill="black"/>
<path d="M516.634 394.23C516.634 394.86 516.634 395.491 516.596 396.122C516.596 396.657 516.558 397.173 516.538 397.709C516.538 397.804 516.519 397.9 516.519 397.995C516.516 398.551 516.484 399.106 516.424 399.659C515.752 409.211 513.23 418.54 509.001 427.128C508.948 427.161 508.89 427.187 508.83 427.204V427.223C508.33 427.461 507.795 427.616 507.246 427.682C506.604 427.748 505.956 427.676 505.344 427.472C504.732 427.267 504.171 426.935 503.697 426.497C503.677 426.478 503.658 426.44 503.62 426.421C502.075 424.719 503.315 422.349 502.819 418.793C502.399 415.85 500.853 413.766 497.781 409.618C496.444 407.713 494.95 405.922 493.316 404.265C492.19 403.176 491.141 402.507 490.397 402.813C489.462 403.233 489.175 405.221 489.519 406.674C490.034 408.853 491.79 409.044 492.171 410.803C492.686 413.116 490.339 415.792 488.336 417.016C487.217 417.77 485.923 418.221 484.578 418.324C483.234 418.428 481.886 418.181 480.665 417.608C477.917 416.002 477.994 412.581 476.524 412.581C475.36 412.6 474.33 414.741 474.158 416.423C474.023 417.475 474.203 418.544 474.675 419.493C475.148 420.443 475.891 421.231 476.811 421.756C478.7 422.559 479.921 420.896 482.134 421.756C482.797 421.974 483.39 422.363 483.856 422.883C484.321 423.403 484.642 424.036 484.787 424.719C484.882 426.535 482.401 427.95 479.177 429.747C475.494 431.792 474.349 431.696 470.018 433.895C469.598 434.105 469.216 434.296 468.854 434.487C467.161 435.269 465.571 436.257 464.121 437.431C461.145 439.878 461.431 440.968 458.511 443.357C456.605 445.129 454.259 446.357 451.718 446.913C449.41 447.295 448.932 446.588 444.925 446.32C444.017 446.254 443.107 446.235 442.197 446.263C440.443 446.286 438.691 446.401 436.949 446.607C434.91 446.809 432.888 447.16 430.9 447.658C441.128 442.44 442.483 434.545 438.228 432.671C438.228 432.671 450.325 423.477 441.262 418.105C441.262 418.105 455.916 400.634 439.373 406.101C437.997 406.573 436.689 407.222 435.48 408.031C434.965 408.356 434.373 408.758 433.705 409.178L431.74 404.17V404.151C435.614 398.875 438.209 393.542 433.076 393.293C431.127 393.24 429.222 393.876 427.695 395.09C426.512 395.988 424.813 397.25 422.676 398.703L418.345 394.23C417.356 392.618 416.748 390.8 416.57 388.916C416.491 386.837 416.844 384.765 417.606 382.83C418.368 380.895 419.523 379.14 420.997 377.676C423.717 374.79 427.197 372.735 431.034 371.75C434.044 370.583 437.294 370.176 440.498 370.564C441.033 370.66 441.605 370.775 442.197 370.928C444.067 371.367 445.994 372.017 446.986 372.342C448.674 373.109 450.47 373.612 452.31 373.833C454.714 373.948 455.382 373.222 456.432 373.833C457.748 374.56 457.538 376.089 458.511 379.74C459.485 383.353 460.286 386.411 462.347 387.138C463.892 387.673 464.732 386.411 466.487 387.138C467.632 387.616 467.632 388.304 469.426 390.101C471.01 391.668 471.811 392.452 472.975 392.758C474.085 393.012 475.245 392.921 476.302 392.497C477.359 392.074 478.262 391.338 478.89 390.387C479.119 389.986 479.539 389.145 479.177 385.666C478.738 381.269 478.528 379.071 477.116 377.676C475.399 375.974 474.063 377.217 470.018 375.898C465.381 374.388 465.724 372.285 460.572 370.278C457.118 368.94 456.203 369.57 453.493 367.907C451.299 366.569 448.513 364.084 449.047 362.574C449.638 360.968 453.455 362.211 454.962 359.917C456.145 358.139 454.504 356.4 455.84 353.991C456.622 352.615 458.244 351.296 459.389 351.64C460.649 352.003 460.171 354.049 461.755 356.667C463.222 358.906 465.411 360.573 467.957 361.389C469.884 362.096 472.269 362.976 474.158 361.695C475.837 360.567 476.772 357.986 475.933 356.667C474.845 354.966 471.544 356.419 470.609 354.89C470.455 354.523 470.377 354.129 470.381 353.731C470.384 353.333 470.468 352.941 470.628 352.577C470.875 351.73 471.326 350.957 471.941 350.327C472.557 349.697 473.319 349.229 474.158 348.964C475.131 348.811 476.124 349.174 481.848 353.991C482.153 354.259 482.459 354.507 482.726 354.737L482.745 354.756C485.779 357.336 486.332 357.91 487.458 357.853C487.832 357.829 488.199 357.745 488.546 357.604C489.149 357.351 489.704 356.995 490.187 356.553C491.537 355.235 492.613 353.663 493.354 351.927C494.327 349.671 493.946 348.754 494.537 348.371C495.911 347.492 500.815 350.436 505.967 355.731C507.411 358.123 508.711 360.6 509.86 363.148C513.604 371.291 515.841 380.048 516.462 388.992C516.519 389.852 516.557 390.732 516.596 391.611C516.615 392.471 516.634 393.35 516.634 394.23Z" fill="black"/>
<path d="M298.877 0.714111C299.945 5.06248 300.766 9.46791 301.336 13.9093C301.966 18.3217 302.374 22.7506 302.739 27.1826C303.032 31.6199 303.278 36.0607 303.302 40.5179C303.389 44.9954 303.221 49.4742 302.797 53.9323C301.724 49.5848 300.901 45.1793 300.332 40.7375C299.703 36.325 299.295 31.8962 298.935 27.4638C298.646 23.0261 298.401 18.5853 298.378 14.128C298.291 9.65084 298.458 5.17238 298.877 0.714111Z" fill="black"/>
<path d="M326.391 57.6026C327.409 53.0699 328.673 48.5962 330.179 44.2017C331.617 39.8058 333.263 35.4935 334.949 31.1974C336.702 26.9279 338.498 22.6764 340.501 18.508C342.455 14.2943 344.64 10.1918 347.046 6.21948C346.033 10.7535 344.77 15.228 343.264 19.6225C341.824 24.018 340.178 28.3303 338.487 32.6247C336.731 36.8924 334.934 41.1439 332.931 45.3119C330.976 49.525 328.792 53.628 326.391 57.6026Z" fill="black"/>
<path d="M257.067 10.8073C259.428 14.3791 261.577 18.0877 263.502 21.9138C265.473 25.6919 267.239 29.559 268.965 33.4435C270.626 37.3565 272.244 41.2885 273.657 45.3092C275.137 49.3292 276.376 53.4343 277.366 57.6025C275 54.0331 272.849 50.325 270.926 46.4982C268.956 42.7197 267.19 38.8525 265.467 34.9662C263.811 31.0514 262.194 27.1194 260.781 23.0982C259.302 19.0782 258.062 14.9741 257.067 10.8073Z" fill="black"/>
<path d="M79.3532 321.578C77.6462 321.143 75.9086 320.838 74.1554 320.667C73.3257 320.562 72.4828 320.646 71.6904 320.914C70.9401 321.186 71.1767 322.011 71.592 322.73C72.5609 324.164 73.7209 325.459 75.0398 326.578C76.326 327.764 77.6897 328.893 79.0749 329.952C79.1996 330.047 79.2813 330.188 79.3022 330.344C79.3231 330.499 79.2814 330.657 79.1863 330.782C79.1221 330.864 79.038 330.927 78.9422 330.967C78.8463 331.007 78.7418 331.022 78.6387 331.01C75.0287 330.608 71.6275 329.111 68.8911 326.718C67.5042 325.518 66.3529 324.069 65.4966 322.446C65.0445 321.604 64.7218 320.698 64.5394 319.76C64.4336 319.214 64.4447 318.652 64.572 318.111C64.6659 317.764 64.8369 317.443 65.0723 317.171C65.1451 317.039 65.2133 316.995 65.322 316.788C66.9145 313.885 68.273 310.602 69.6557 307.453L73.7158 297.874C75.0774 294.672 76.4563 291.51 77.6238 288.27C78.8249 285.03 79.8 281.749 80.9291 278.436L84.2401 268.532C85.3661 265.24 86.7455 262.036 87.9847 258.787C92.9439 245.767 99.2943 233.322 106.925 221.67C110.778 215.823 115.326 210.468 120.469 205.721C121.118 205.131 121.751 204.521 122.415 203.947L124.497 202.325C125.877 201.226 127.323 200.212 128.826 199.289C131.845 197.313 135.181 195.874 138.689 195.036L138.493 195.083C144.456 193.303 150.608 192.232 156.82 191.891C162.965 191.391 169.12 191.231 175.263 191.225C181.408 191.228 187.547 191.347 193.682 191.584C199.815 191.875 205.935 192.244 212.063 192.745L211.419 192.964C213.79 190.531 215.976 187.924 217.959 185.165L221.022 181.003C222.002 179.481 223.288 178.18 224.797 177.183C227.934 175.394 231.621 174.835 235.146 175.616C238.588 176.235 241.868 177.554 244.782 179.491C244.793 179.499 244.803 179.509 244.811 179.52C244.819 179.532 244.824 179.545 244.827 179.558C244.83 179.572 244.83 179.586 244.828 179.6C244.825 179.614 244.82 179.627 244.812 179.638C244.795 179.661 244.77 179.676 244.743 179.681C244.715 179.687 244.687 179.682 244.663 179.667C241.717 177.907 238.444 176.768 235.043 176.322C231.725 175.757 228.314 176.398 225.425 178.129C224.073 179.087 222.938 180.321 222.094 181.749L219.153 186.037C217.198 188.96 214.998 191.709 212.576 194.256C212.499 194.333 212.407 194.392 212.306 194.43C212.205 194.469 212.097 194.485 211.989 194.479L211.932 194.475C205.837 194.102 199.717 193.858 193.606 193.694C187.494 193.5 181.381 193.399 175.273 193.428C169.163 193.445 163.064 193.697 156.989 194.078C150.95 194.338 144.962 195.304 139.147 196.955L139.018 196.988L138.95 197.002C135.704 197.791 132.602 199.086 129.756 200.838C128.281 201.693 126.86 202.639 125.5 203.669L123.437 205.195C122.776 205.739 122.144 206.32 121.495 206.881C120.173 207.978 118.916 209.151 117.729 210.393C116.549 211.644 115.291 212.825 114.172 214.135C111.98 216.795 109.687 219.383 107.763 222.261C99.8317 233.64 93.4498 246.028 88.7852 259.096C87.6558 262.375 86.3885 265.603 85.3744 268.918L82.3937 278.879C81.3771 282.173 80.5145 285.597 79.3007 288.875C78.1456 292.183 76.7786 295.405 75.4543 298.608C74.1347 301.824 72.7176 304.999 71.3131 308.182C69.8605 311.368 68.5377 314.512 66.7496 317.677C66.603 317.917 66.437 318.145 66.2532 318.358C66.2653 318.465 66.1753 318.394 66.1732 318.567C66.1106 318.874 66.1086 319.191 66.1674 319.499C66.3131 320.268 66.5714 321.012 66.9339 321.706C67.693 323.168 68.6977 324.488 69.904 325.608C72.3662 327.89 75.4656 329.364 78.7871 329.833L78.351 330.89C76.9539 329.753 75.6191 328.577 74.3356 327.32C73.0029 326.08 71.854 324.655 70.9234 323.088C70.6834 322.648 70.5414 322.16 70.507 321.659C70.5077 321.373 70.5964 321.093 70.7609 320.859C70.9254 320.625 71.1579 320.447 71.4267 320.35C72.325 320.075 73.2756 320.017 74.2003 320.183C75.9641 320.446 77.7053 320.844 79.4087 321.372C79.4221 321.376 79.4346 321.383 79.4455 321.391C79.4564 321.4 79.4655 321.411 79.4722 321.423C79.4789 321.435 79.4832 321.449 79.4847 321.463C79.4863 321.477 79.4851 321.491 79.4812 321.504C79.4732 321.53 79.4556 321.553 79.4318 321.566C79.408 321.58 79.3799 321.584 79.3532 321.578Z" fill="black"/>
<path d="M443.738 414.499C444.578 413.252 445.328 411.947 445.983 410.594C446.304 409.928 446.561 409.233 446.749 408.517C446.969 407.858 446.981 407.147 446.783 406.481C446.648 406.192 446.434 405.947 446.166 405.774C445.898 405.601 445.587 405.507 445.268 405.503C444.557 405.422 443.838 405.445 443.133 405.572C441.677 405.837 440.25 406.242 438.872 406.782C437.507 407.361 436.212 408.092 435.01 408.961C433.753 409.808 432.467 410.621 431.167 411.412C429.862 412.198 428.543 412.964 427.172 413.66C425.787 414.422 424.306 414.996 422.77 415.369C422.628 415.398 422.48 415.381 422.348 415.32C422.216 415.26 422.107 415.158 422.036 415.031C421.965 414.904 421.936 414.758 421.954 414.614C421.971 414.469 422.034 414.334 422.133 414.228L422.165 414.194C425.347 410.875 428.313 407.354 431.044 403.654L430.875 404.17L430.875 404.151C430.872 403.974 430.926 403.801 431.029 403.657L431.042 403.638C431.889 402.445 432.697 401.227 433.407 399.98C434.129 398.815 434.647 397.536 434.939 396.196C435.119 394.892 434.7 394.497 433.379 394.31C432.086 394.199 430.788 394.464 429.642 395.073C429.041 395.389 428.476 395.767 427.953 396.199C427.357 396.667 426.752 397.108 426.144 397.541C424.923 398.406 423.736 399.314 422.486 400.142C420.002 401.821 417.464 403.414 414.849 404.889C409.618 407.913 404.044 410.298 398.246 411.993C395.293 412.809 392.265 413.323 389.208 413.527C386.091 413.69 382.967 413.379 379.942 412.605C379.715 412.545 379.507 412.428 379.336 412.267C379.165 412.105 379.036 411.904 378.962 411.68C378.888 411.457 378.87 411.218 378.911 410.987C378.951 410.755 379.049 410.536 379.195 410.351L379.217 410.324L386.462 401.233L390.021 396.758C390.174 396.539 390.277 396.288 390.319 396.024C390.362 395.76 390.344 395.489 390.267 395.233C390.199 394.991 390.076 394.768 389.907 394.582C389.805 394.476 389.694 394.379 389.575 394.293C389.477 394.22 389.37 394.158 389.257 394.11C388.977 393.996 388.676 393.945 388.374 393.96C387.998 393.943 387.462 393.95 387.024 393.959C386.102 393.981 385.183 394.048 384.269 394.154C382.434 394.362 380.626 394.761 378.874 395.344C377.999 395.652 377.139 395.917 376.249 396.252C375.4 396.589 374.566 396.973 373.748 397.395L368.637 400.153C368.427 400.266 368.193 400.327 367.954 400.328L367.913 400.328H367.894L368.61 400.157C358.989 404.971 349.28 409.222 340.124 414.524L336.679 416.535C333.06 418.652 329.112 420.144 324.999 420.948C322.272 421.498 319.496 421.767 316.714 421.753C313.891 421.732 311.258 421.397 308.608 421.203L276.741 418.531L244.885 415.729C223.647 413.889 202.407 412.014 181.159 410.385L173.192 409.861C171.859 409.771 170.547 409.727 169.238 409.69C168.448 409.704 167.667 409.522 166.965 409.159C166.299 408.775 165.725 408.25 165.284 407.619C163.822 405.25 162.869 402.602 162.485 399.844C162.013 397.189 161.692 394.51 161.524 391.819C160.981 381.117 161.17 370.39 162.088 359.714L162.505 360.327C155.17 358.068 147.84 355.747 140.714 352.862C133.559 350.053 126.551 346.881 119.718 343.357C112.888 339.831 106.233 335.969 99.63 332.095C93.0246 328.259 86.3598 324.416 79.122 322.439L80.3772 321.486C80.3916 342.635 80.8379 363.783 81.7162 384.93C82.1746 395.493 82.7597 406.051 83.6234 416.574C83.8103 419.209 84.073 421.833 84.319 424.459C84.5495 427.088 84.8228 429.71 85.1389 432.325C85.4407 434.947 85.6747 437.583 86.1579 440.056C86.6264 442.56 87.3205 445.015 88.2317 447.393C92.008 456.951 98.8554 464.977 107.692 470.202C112.073 472.845 116.807 474.851 121.752 476.159C124.224 476.818 126.737 477.314 129.275 477.644C131.829 477.959 134.494 478.169 137.098 478.437L144.952 479.191L152.826 479.702C158.072 480.111 163.332 480.224 168.587 480.438C173.843 480.679 179.105 480.582 184.364 480.672C189.622 480.543 194.885 480.56 200.138 480.278C221.173 479.419 242.119 477.054 262.817 473.203C273.148 471.282 283.539 469.09 293.995 467.349C304.447 465.575 314.923 464.088 325.405 462.664C346.363 459.789 367.361 457.348 388.325 454.727C398.797 453.383 409.29 452.067 419.644 450.206L423.496 449.426C424.784 449.172 425.979 448.752 427.23 448.426C428.424 447.955 429.608 447.436 430.78 446.898C431.93 446.315 433.038 445.654 434.097 444.919C436.218 443.502 437.96 441.587 439.172 439.34C439.753 438.26 440.013 437.035 439.922 435.811C439.869 435.235 439.668 434.683 439.338 434.208C439.007 433.734 438.559 433.354 438.038 433.106C437.967 433.073 437.905 433.024 437.858 432.961C437.81 432.899 437.779 432.826 437.766 432.749C437.754 432.672 437.76 432.593 437.785 432.519C437.81 432.445 437.852 432.378 437.909 432.324L437.939 432.296C439.082 431.35 440.173 430.342 441.207 429.278C442.211 428.196 443.045 426.966 443.679 425.632C444.007 424.995 444.206 424.299 444.265 423.585C444.323 422.871 444.24 422.152 444.02 421.47C443.44 420.125 442.425 419.015 441.138 418.318C441.11 418.301 441.086 418.279 441.066 418.253C441.047 418.226 441.033 418.197 441.025 418.165C441.017 418.133 441.016 418.1 441.02 418.068C441.025 418.036 441.036 418.005 441.053 417.977L441.074 417.947L443.739 414.498L443.748 414.486C443.779 414.446 443.824 414.42 443.874 414.414C443.923 414.407 443.973 414.42 444.013 414.451C444.053 414.481 444.08 414.526 444.087 414.575C444.094 414.625 444.082 414.676 444.052 414.716L441.451 418.263L441.387 417.893C442.8 418.62 443.927 419.803 444.585 421.251C444.853 422.007 444.969 422.808 444.927 423.609C444.884 424.41 444.685 425.195 444.339 425.918C443.708 427.341 442.863 428.659 441.835 429.827C440.79 430.961 439.682 432.037 438.517 433.047L438.419 432.237C439.102 432.542 439.696 433.019 440.141 433.621C440.586 434.224 440.868 434.931 440.96 435.675C441.112 437.102 440.852 438.543 440.211 439.826C438.969 442.293 437.141 444.417 434.888 446.009C433.795 446.81 432.648 447.534 431.456 448.177C430.245 448.773 429.016 449.35 427.769 449.875C426.475 450.255 425.176 450.738 423.878 451.028L419.98 451.914C409.562 453.973 399.095 455.469 388.631 456.997L325.849 465.821C315.403 467.353 304.966 468.948 294.598 470.822C289.405 471.697 284.247 472.819 279.08 473.823C273.917 474.891 268.728 475.999 263.515 476.97C242.645 480.902 221.522 483.336 200.306 484.251C179.088 485.21 157.828 484.566 136.707 482.325C134.057 482.036 131.452 481.819 128.765 481.471C126.063 481.104 123.389 480.559 120.758 479.84C115.477 478.409 110.426 476.232 105.756 473.376C96.2635 467.678 88.9368 458.974 84.9337 448.639C83.9658 446.066 83.2319 443.411 82.7411 440.705C82.2318 437.977 82.0128 435.33 81.7326 432.694C81.445 430.049 81.2034 427.403 81.0079 424.756C80.7942 422.109 80.5639 419.463 80.4102 416.815C79.678 406.225 79.2275 395.63 78.9039 385.035C78.2666 363.844 78.0936 342.654 78.3849 321.465L78.3851 321.445C78.3868 321.316 78.4138 321.188 78.4647 321.069C78.5157 320.951 78.5895 320.843 78.6819 320.753C78.7743 320.662 78.8836 320.591 79.0035 320.543C79.1234 320.495 79.2515 320.471 79.3806 320.473C79.4685 320.475 79.5559 320.488 79.6405 320.512C87.2198 322.701 93.9171 326.721 100.482 330.647C107.054 334.604 113.583 338.58 120.365 342.109C127.14 345.646 134.09 348.834 141.189 351.662C148.261 354.567 155.544 356.914 162.838 359.201C162.967 359.241 163.078 359.324 163.154 359.435C163.23 359.547 163.266 359.68 163.256 359.815C162.344 370.426 162.206 381.09 162.844 391.721C163.027 394.359 163.359 396.985 163.838 399.585C164.206 402.126 165.087 404.565 166.426 406.754C166.748 407.219 167.169 407.607 167.659 407.89C168.146 408.136 168.689 408.253 169.234 408.229C170.59 408.257 171.942 408.294 173.268 408.375L181.262 408.823C202.555 410.095 223.823 411.596 245.093 413.093L276.994 415.387L308.878 417.892C311.542 418.076 314.212 418.391 316.723 418.389C319.275 418.389 321.821 418.129 324.32 417.611C326.813 417.094 329.246 416.319 331.579 415.298C332.744 414.788 333.88 414.216 334.983 413.582L338.458 411.584C347.812 406.249 357.703 401.994 367.178 397.326L367.2 397.315C367.416 397.209 367.654 397.154 367.894 397.154H367.913L367.189 397.33L372.323 394.603C373.229 394.142 374.159 393.722 375.113 393.35C376.037 393.008 377.029 392.701 377.983 392.377C379.914 391.753 381.904 391.329 383.922 391.112C384.932 391.002 385.946 390.935 386.96 390.917C387.489 390.912 387.922 390.904 388.514 390.93C389.183 390.936 389.844 391.074 390.46 391.337C390.792 391.482 391.105 391.666 391.393 391.885C391.663 392.088 391.914 392.315 392.142 392.564C392.624 393.102 392.973 393.745 393.161 394.443C393.349 395.123 393.383 395.837 393.263 396.532C393.143 397.227 392.871 397.888 392.467 398.465L388.762 403.073L381.453 412.124L380.728 409.842C383.454 410.555 386.269 410.87 389.084 410.777C391.952 410.628 394.797 410.189 397.577 409.469C403.203 407.916 408.624 405.694 413.724 402.851C416.3 401.451 418.816 399.927 421.274 398.322C422.51 397.531 423.696 396.652 424.91 395.822C425.518 395.404 426.118 394.98 426.696 394.541C427.329 394.04 428.01 393.605 428.729 393.241C430.235 392.478 431.93 392.167 433.608 392.347C434.607 392.415 435.541 392.865 436.219 393.603C436.52 394.012 436.73 394.481 436.834 394.978C436.938 395.475 436.933 395.989 436.821 396.484C436.476 398.052 435.857 399.548 434.993 400.901C434.211 402.201 433.359 403.457 432.44 404.663L432.607 404.151L432.607 404.17L432.606 404.196C432.604 404.373 432.545 404.545 432.437 404.686C429.569 408.378 426.467 411.88 423.151 415.173L422.546 413.998C425.378 413.186 428.082 411.978 430.578 410.409C431.881 409.659 433.173 408.887 434.447 408.074C435.724 407.201 437.094 406.474 438.532 405.907C439.985 405.377 441.487 404.99 443.016 404.753C443.805 404.638 444.608 404.641 445.397 404.762C445.836 404.798 446.257 404.955 446.614 405.216C446.97 405.477 447.248 405.831 447.416 406.239C447.644 407.039 447.614 407.891 447.332 408.673C447.111 409.417 446.819 410.138 446.459 410.826C445.75 412.178 444.946 413.478 444.052 414.716C444.023 414.756 443.979 414.784 443.93 414.793C443.881 414.801 443.83 414.79 443.789 414.762C443.748 414.733 443.719 414.69 443.71 414.641C443.7 414.591 443.71 414.54 443.738 414.499V414.499Z" fill="black"/>
<path d="M423.257 415.56C420.378 417.25 417.474 418.808 414.487 420.24C411.531 421.722 408.436 422.905 405.247 423.772C408.299 422.578 411.224 421.082 413.979 419.306C416.756 417.587 419.47 415.728 422.072 413.796L422.087 413.786C422.313 413.618 422.597 413.547 422.875 413.589C423.154 413.631 423.405 413.782 423.572 414.008C423.74 414.235 423.811 414.519 423.77 414.798C423.729 415.077 423.579 415.329 423.353 415.497C423.322 415.52 423.29 415.541 423.257 415.56Z" fill="black"/>
<path d="M441.892 418.97C436.96 422.331 431.966 425.554 426.845 428.595C424.281 430.105 421.698 431.588 419.027 432.909C417.702 433.59 416.343 434.202 414.955 434.744C414.268 435.034 413.56 435.271 412.837 435.453C412.123 435.662 411.385 435.776 410.641 435.793C411.378 435.732 412.104 435.575 412.8 435.325C413.504 435.102 414.191 434.826 414.853 434.499C416.195 433.88 417.505 433.193 418.777 432.44C421.345 430.973 423.823 429.347 426.279 427.697C431.178 424.377 435.964 420.865 440.637 417.256L440.647 417.248C440.87 417.076 441.152 416.999 441.431 417.035C441.711 417.072 441.964 417.217 442.136 417.441C442.308 417.664 442.384 417.947 442.348 418.227C442.312 418.506 442.167 418.76 441.944 418.933L441.892 418.97Z" fill="black"/>
<path d="M438.912 433.494C436.988 434.904 434.967 436.177 432.865 437.305C430.797 438.438 428.665 439.449 426.479 440.333C422.141 442.119 417.602 443.37 412.962 444.057C417.496 443.03 421.888 441.454 426.042 439.364C428.11 438.339 430.117 437.194 432.053 435.934C433.976 434.705 435.813 433.345 437.55 431.863L437.583 431.834C437.689 431.742 437.811 431.672 437.944 431.627C438.076 431.582 438.217 431.564 438.356 431.574C438.496 431.584 438.632 431.621 438.757 431.684C438.882 431.746 438.994 431.833 439.086 431.939C439.177 432.045 439.247 432.168 439.291 432.301C439.335 432.434 439.352 432.574 439.342 432.714C439.332 432.854 439.294 432.99 439.231 433.115C439.168 433.24 439.081 433.352 438.975 433.443C438.955 433.46 438.933 433.478 438.912 433.494Z" fill="black"/>
<path d="M387.298 353.589C387.141 353.589 386.985 353.55 386.847 353.475C386.708 353.401 386.59 353.293 386.502 353.162L378.264 340.695C378.195 340.591 378.147 340.473 378.123 340.35C378.099 340.227 378.099 340.1 378.124 339.977C378.149 339.854 378.198 339.737 378.268 339.633C378.338 339.529 378.428 339.439 378.532 339.37C378.637 339.301 378.754 339.252 378.877 339.228C379 339.204 379.127 339.205 379.25 339.23C379.372 339.255 379.489 339.304 379.593 339.374C379.697 339.444 379.786 339.534 379.856 339.639L388.094 352.105C388.233 352.317 388.283 352.575 388.233 352.823C388.183 353.072 388.036 353.29 387.825 353.43C387.669 353.535 387.486 353.59 387.298 353.589Z" fill="black"/>
<path d="M429.716 322.431C429.558 322.431 429.403 322.392 429.264 322.317C429.125 322.243 429.007 322.135 428.92 322.003L420.68 309.537C420.611 309.432 420.563 309.315 420.539 309.192C420.515 309.068 420.515 308.942 420.54 308.819C420.565 308.696 420.614 308.579 420.684 308.474C420.754 308.37 420.844 308.281 420.948 308.212C421.053 308.142 421.17 308.094 421.293 308.07C421.416 308.046 421.542 308.046 421.665 308.071C421.788 308.096 421.905 308.145 422.009 308.216C422.113 308.286 422.202 308.376 422.271 308.48L430.511 320.947C430.607 321.091 430.662 321.258 430.67 321.431C430.678 321.603 430.639 321.775 430.557 321.927C430.475 322.08 430.354 322.207 430.206 322.296C430.058 322.384 429.888 322.431 429.716 322.431Z" fill="black"/>
</g>
<defs>
<clipPath id="clip0">
<rect width="577" height="485" fill="white"/>
</clipPath>
</defs>
</svg>
